<?xml version="1.0" encoding="UTF-8"?>
<svg width="314px" height="366px" viewBox="0 0 314 366" version="1.1" xmlns="http://www.w3.org/2000/svg" xmlns:xlink="http://www.w3.org/1999/xlink">
    <!-- Generator: Sketch 52.6 (67491) - http://www.bohemiancoding.com/sketch -->
    <title>illustration</title>
    <desc>Created with Sketch.</desc>
    <defs>
        <path d="M58.52471,79.3275198 C117.04942,79.3275198 117.04942,67.1487884 117.04942,38.6057029 C117.04942,10.0626174 104.740652,0.214043716 58.52471,0.214043716 C12.3087684,0.214043716 0,10.0626174 0,38.6057029 C0,67.1487884 0,79.3275198 58.52471,79.3275198 Z" id="path-1"></path>
        <path d="M1.57396097,3.33811691 C1.57396097,3.33811691 1.57396097,3.33811691 1.57396097,3.33811691 L0,3.33812154 C0,2.45908287 0.373922293,1.59896022 1.02594929,0.978069613 C1.6791448,0.356066298 2.58240083,0 3.50552149,0 L28.044172,0 C28.9672926,0 29.8693801,0.356066298 30.5225756,0.978069613 C31.1757712,1.59896022 31.5496934,2.45908287 31.5496934,3.33812154 C31.5415139,6.2133569 30.5167331,8.96174364 28.8656325,11.3306972 C27.2063523,13.6952 24.8880341,15.7125381 22.0485617,16.9966022 C20.1579171,17.8478232 18.0253915,18.3607812 15.7748467,18.3596685 C12.39085,18.3596685 9.30715957,17.210242 6.84044094,15.4822077 C4.36554277,13.7463845 2.446854,11.434179 1.2561452,8.84490939 C0.466234359,7.11687513 0.00116850716,5.25420331 0,3.33812154 L1.57396118,3.33812154 Z" id="path-3"></path>
        <linearGradient x1="0%" y1="50%" x2="100%" y2="50%" id="linearGradient-5">
            <stop stop-color="#FA709A" offset="0%"></stop>
            <stop stop-color="#FEE140" offset="100%"></stop>
        </linearGradient>
    </defs>
    <g id="Page-1" stroke="none" stroke-width="1" fill="none" fill-rule="evenodd">
        <g id="reactjs-girls-conf" transform="translate(-955.000000, -240.000000)">
            <g id="Group-7" transform="translate(138.000000, -195.000000)">
                <g id="illustration" transform="translate(815.000000, 435.000000)">
                    <g id="light" opacity="0.47000558" transform="translate(23.000000, 0.000000)" fill="#FFFFFF">
                        <path d="M130.518883,266 C202.387353,266 261,207.574302 261,135.981189 C261,64.388077 202.387353,6 130.518883,6 C58.6504124,6 0,64.388077 0,135.981189 C0,207.574302 58.6504124,266 130.518883,266" id="Fill-7" opacity="0.1"></path>
                        <path d="M129.518816,249 C191.460612,249 242,198.460612 242,136.481184 C242,74.5393879 191.460612,24 129.518816,24 C67.5393879,24 17,74.5393879 17,136.481184 C17,198.460612 67.5393879,249 129.518816,249" id="Fill-8" opacity="0.1"></path>
                        <path d="M131.018964,222 C178.35215,222 217,183.576847 217,136.481147 C217,89.4231533 178.35215,51 131.018964,51 C83.6478501,51 45,89.4231533 45,136.481147 C45,183.576847 83.6478501,222 131.018964,222" id="Fill-9" opacity="0.1"></path>
                        <path d="M130.518853,194 C162.719304,194 189,167.719304 189,135.481147 C189,103.280696 162.719304,77 130.518853,77 C98.2806961,77 72,103.280696 72,135.481147 C72,167.719304 98.2806961,194 130.518853,194" id="Fill-10" opacity="0.1"></path>
                        <path d="M43.5177305,5 C44.9007092,5 46,3.87323944 46,2.5 C46,1.12676056 44.9007092,0 43.5177305,0 C42.0992908,0 41,1.12676056 41,2.5 C41,3.87323944 42.0992908,5 43.5177305,5" id="Fill-82" opacity="0.1"></path>
                        <path d="M58.5,19 C61,19 63,17 63,14.5 C63,12.0384615 61,10 58.5,10 C56.0384615,10 54,12.0384615 54,14.5 C54,17 56.0384615,19 58.5,19" id="Fill-83" opacity="0.1"></path>
                        <path d="M175.979381,177 C177.092784,177 178,176.092784 178,175.020619 C178,173.907216 177.092784,173 175.979381,173 C174.907216,173 174,173.907216 174,175.020619 C174,176.092784 174.907216,177 175.979381,177" id="Fill-104" opacity="0.1"></path>
                        <path d="M130.020619,136 C131.092784,136 132,135.134021 132,134.020619 C132,132.907216 131.092784,132 130.020619,132 C128.907216,132 128,132.907216 128,134.020619 C128,135.134021 128.907216,136 130.020619,136" id="Fill-107" opacity="0.1"></path>
                    </g>
                    <g id="arms" transform="translate(0.000000, 186.000000)">
                        <g id="Group-8" transform="translate(54.295550, 69.534217) rotate(20.000000) translate(-54.295550, -69.534217) translate(18.795550, 8.534217)">
                            <g id="Group" transform="translate(0.000000, 90.392638)" fill="#FFFFFF">
                                <path d="M24.4483871,6.82208589 C23.4225806,6.82208589 22.0548387,6.82208589 21.0290323,6.4809816 L23.7645161,20.807362 C24.1064516,23.195092 26.5,24.5595092 28.5516129,24.2184049 C30.9451613,23.8773006 32.3129032,21.4895706 31.6290323,19.4429448 L29.2354839,6.4809816 C27.8677419,6.4809816 26.1580645,6.82208589 24.4483871,6.82208589 Z" id="Path"></path>
                                <path d="M3.93225806,30.3582822 C4.27419355,30.3582822 4.27419355,30.3582822 4.61612903,30.3582822 C6.66774194,30.3582822 8.37741935,28.993865 8.71935484,26.9472393 C10.0870968,19.1018405 13.5064516,11.597546 19.3193548,5.79877301 C16.583871,4.77546012 14.5322581,2.72883436 13.1645161,0.341104294 C6.66774194,7.16319018 2.22258065,16.3730061 0.512903226,25.9239264 C0.170967742,27.6294479 1.53870968,29.6760736 3.93225806,30.3582822 Z" id="Path"></path>
                            </g>
                            <polygon id="Path" fill="#FB8E82" points="40.8612903 40.9325153 61.0354839 0.682208589 70.6096774 5.45766871 53.1709677 40.9325153"></polygon>
                            <path d="M21.7129032,77.7717791 L33.3387097,83.2294479 C40.1774194,86.2993865 48.0419355,82.8883436 50.4354839,75.7251534 L57.9580645,51.8478528 C59.6677419,46.0490798 56.9322581,39.5680982 51.4612903,37.1803681 L46.3322581,34.792638 C40.8612903,32.0638037 34.0225806,34.1104294 30.9451613,39.2269939 L17.2677419,60.3754601 C12.4806452,66.1742331 14.8741935,74.7018405 21.7129032,77.7717791 Z" id="Path" fill="#FFFFFF"></path>
                            <ellipse id="Oval" fill="#FB8E82" cx="24.4483871" cy="84.2527607" rx="12.9935484" ry="12.9619632"></ellipse>
                        </g>
                        <g id="Group-8-Copy" transform="translate(263.704450, 69.534217) scale(-1, 1) rotate(20.000000) translate(-263.704450, -69.534217) translate(228.204450, 8.534217)">
                            <g id="Group" transform="translate(0.000000, 90.392638)" fill="#FFFFFF">
                                <path d="M24.4483871,6.82208589 C23.4225806,6.82208589 22.0548387,6.82208589 21.0290323,6.4809816 L23.7645161,20.807362 C24.1064516,23.195092 26.5,24.5595092 28.5516129,24.2184049 C30.9451613,23.8773006 32.3129032,21.4895706 31.6290323,19.4429448 L29.2354839,6.4809816 C27.8677419,6.4809816 26.1580645,6.82208589 24.4483871,6.82208589 Z" id="Path"></path>
                                <path d="M3.93225806,30.3582822 C4.27419355,30.3582822 4.27419355,30.3582822 4.61612903,30.3582822 C6.66774194,30.3582822 8.37741935,28.993865 8.71935484,26.9472393 C10.0870968,19.1018405 13.5064516,11.597546 19.3193548,5.79877301 C16.583871,4.77546012 14.5322581,2.72883436 13.1645161,0.341104294 C6.66774194,7.16319018 2.22258065,16.3730061 0.512903226,25.9239264 C0.170967742,27.6294479 1.53870968,29.6760736 3.93225806,30.3582822 Z" id="Path"></path>
                            </g>
                            <polygon id="Path" fill="#FB8E82" points="40.8612903 40.9325153 61.0354839 0.682208589 70.6096774 5.45766871 53.1709677 40.9325153"></polygon>
                            <path d="M21.7129032,77.7717791 L33.3387097,83.2294479 C40.1774194,86.2993865 48.0419355,82.8883436 50.4354839,75.7251534 L57.9580645,51.8478528 C59.6677419,46.0490798 56.9322581,39.5680982 51.4612903,37.1803681 L46.3322581,34.792638 C40.8612903,32.0638037 34.0225806,34.1104294 30.9451613,39.2269939 L17.2677419,60.3754601 C12.4806452,66.1742331 14.8741935,74.7018405 21.7129032,77.7717791 Z" id="Path" fill="#FFFFFF"></path>
                            <ellipse id="Oval" fill="#FB8E82" cx="24.4483871" cy="84.2527607" rx="12.9935484" ry="12.9619632"></ellipse>
                        </g>
                    </g>
                    <path d="M159.001343,366 C174.649216,366 187.950176,351.825349 193,332 L125,332 C130.051839,351.824401 143.348769,366 159.001343,366 Z" id="Robo.to-path" fill="#EBEBEB"></path>
                    <path d="M159.947806,339.998722 C159.314769,340.000426 158.682586,340.000426 158.049549,339.998722 C136.36056,339.924582 116.26655,330.058846 102.9181,312.93165 C89.4850733,295.696227 84.8308423,273.671529 90.1522822,252.506684 L110.38896,172.001704 C124.661764,180.37697 141.276207,185.188401 158.998678,185.188401 C176.722003,185.188401 193.339008,180.376118 207.612666,172 L227.84849,252.507537 C233.168221,273.672381 228.515699,295.696227 215.080964,312.93165 C201.733368,330.058846 181.63765,339.92373 159.947806,339.998722 Z" id="Path" fill="#FFFFFF"></path>
                    <g id="Group-8" transform="translate(68.000000, 38.000000)">
                        <g id="Group-13">
                            <g id="Group-3">
                                <polygon id="Rectangle" fill="#FFFFFF" transform="translate(148.579496, 44.999775) rotate(123.675766) translate(-148.579496, -44.999775) " points="110.435705 41.9236238 186.708507 42.0856488 186.723286 48.075927 110.450485 47.913902"></polygon>
                                <ellipse id="Oval" fill="#FB8E82" cx="169.830841" cy="13.5131579" rx="12.9981308" ry="13"></ellipse>
                                <polygon id="Rectangle" fill="#FFFFFF" transform="translate(34.195995, 45.383560) rotate(56.324234) translate(-34.195995, -45.383560) " points="-3.93301589 42.4694329 72.3397854 42.3074079 72.3250057 48.2976861 -3.94779566 48.4597112"></polygon>
                                <ellipse id="Oval" fill="#FB8E82" cx="13.1691589" cy="13.5131579" rx="12.9981308" ry="13"></ellipse>
                            </g>
                            <ellipse id="Oval" fill="#FFFFFF" cx="91.5" cy="104.855263" rx="89.9607477" ry="89.9736842"></ellipse>
                        </g>
                        <g id="Group-4" transform="translate(33.350467, 66.710526)">
                            <g id="Group-11">
                                <mask id="mask-2" fill="white">
                                    <use xlink:href="#path-1"></use>
                                </mask>
                                <use id="Oval-8" fill="#ECDBCA" xlink:href="#path-1"></use>
                            </g>
                            <g id="Group-2" transform="translate(23.088785, 25.657895)">
                                <g id="kawaii-iceCream__face">
                                    <g id="kawaii-iceCream__mouth" transform="translate(20.206249, 16.555758)">
                                        <g id="kawaii-iceCream__mouth__joy" transform="translate(0.000000, 2.121562)">
                                            <mask id="mask-4" fill="white">
                                                <use xlink:href="#path-3"></use>
                                            </mask>
                                            <use id="kawaii-iceCream__Combined-Shape" fill="#000000" xlink:href="#path-3"></use>
                                            <path d="M10.3722641,10.5597323 C10.3722641,10.5597323 10.3722641,10.5597323 10.3722641,10.5597323 L9.7253553,10.5597323 C9.7253553,10.2549989 9.87903992,9.9568231 10.1470275,9.74158105 C10.4154953,9.52595325 11.1661487,8.48624677 16.2089255,8.48624677 C21.2517023,8.48624677 22.0018754,9.52595325 22.2703432,9.74158105 C22.5388111,9.9568231 22.6924957,10.2549989 22.6924957,10.5597323 C22.6891338,11.5564805 22.2679419,12.5092544 21.5893282,13.3304916 C20.9073527,14.1501858 19.954508,14.8495296 18.7874654,15.2946718 C18.0103975,15.5897617 17.1339148,15.7675871 16.2089255,15.7672014 C14.8180796,15.7672014 13.5506617,15.3687336 12.5368234,14.7696818 C11.5196233,14.1679298 10.7310291,13.3663653 10.2416396,12.4687519 C9.91698082,11.8697001 9.72583556,11.2239739 9.7253553,10.5597323 L10.3722641,10.5597323 Z" id="kawaii-iceCream__tongue" fill="#E74144" mask="url(#mask-4)" transform="translate(16.208925, 12.126724) scale(1, -1) translate(-16.208925, -12.126724) "></path>
                                        </g>
                                    </g>
                                    <g id="kawaii-iceCream__blush" transform="translate(0.000000, 16.555758)" fill="#000000" opacity="0.2">
                                        <ellipse id="Oval" cx="3.23459711" cy="3.04974493" rx="3.23459711" ry="3.04974493"></ellipse>
                                        <ellipse id="Oval" cx="67.9265392" cy="3.04974493" rx="3.23459711" ry="3.04974493"></ellipse>
                                    </g>
                                    <g id="kawaii-iceCream__eyes" transform="translate(2.635598, 0.000000)" fill="#000000">
                                        <g id="kawaii-iceCream__eyes__arc" transform="translate(1.073762, 0.000000)">
                                            <path d="M12.1655786,9.97318983 C10.5585379,9.97318983 9.25602996,8.77258811 9.25602996,7.29127983 C9.25602996,6.42859878 8.49469807,5.72683234 7.55879324,5.72683234 C6.62385828,5.72683234 5.86155654,6.42859878 5.86155654,7.29127983 C5.86155654,8.77258811 4.56001843,9.97318983 2.95200787,9.97318983 C1.34496718,9.97318983 0.0424592262,8.77258811 0.0424592262,7.29127983 C0.0424592262,3.47134604 3.41462611,0.363012355 7.55879324,0.363012355 C11.7039302,0.363012355 15.0751273,3.47134604 15.0751273,7.29127983 C15.0751273,8.77258811 13.7735892,9.97318983 12.1655786,9.97318983" id="Fill-5"></path>
                                            <path d="M61.5586307,9.97318983 C59.95159,9.97318983 58.6490821,8.77258811 58.6490821,7.29127983 C58.6490821,6.42859878 57.8877502,5.72683234 56.9518453,5.72683234 C56.0169104,5.72683234 55.2546086,6.42859878 55.2546086,7.29127983 C55.2546086,8.77258811 53.9530705,9.97318983 52.34506,9.97318983 C50.7380193,9.97318983 49.4355113,8.77258811 49.4355113,7.29127983 C49.4355113,3.47134604 52.8076782,0.363012355 56.9518453,0.363012355 C61.0969823,0.363012355 64.4681794,3.47134604 64.4681794,7.29127983 C64.4681794,8.77258811 63.1666413,9.97318983 61.5586307,9.97318983" id="Fill-5"></path>
                                        </g>
                                    </g>
                                </g>
                            </g>
                        </g>
                    </g>
                    <g id="logo" transform="translate(118.000000, 226.000000)">
                        <path d="M83,37.0086047 C83,31.5039225 76.1138621,26.2872093 65.5574069,23.0518605 C67.9936,12.2799845 66.9111655,3.70917829 62.1400966,0.96544186 C61.0404897,0.321813953 59.7542759,0.0172093023 58.3507172,0.0172093023 L58.3507172,3.79407752 C59.1286276,3.79407752 59.7548483,3.94666667 60.2791793,4.23463566 C62.5802828,5.55573643 63.578,10.5860155 62.8000897,17.0555659 C62.6134828,18.648 62.3089586,20.3253333 61.9368897,22.035938 C58.6208966,21.2225116 55.0003793,20.596093 51.1938276,20.1893798 C48.9098966,17.0561395 46.5418207,14.2102946 44.156,11.7206822 C49.6712069,6.58886822 54.8486897,3.77686822 58.3673172,3.77686822 L58.3673172,0 C53.7147379,0 47.6242552,3.31967442 41.4662276,9.07848062 C35.3082,3.35351938 29.2177172,0.0676899225 24.5651379,0.0676899225 L24.5651379,3.84455814 C28.0671655,3.84455814 33.2606759,6.63934884 38.7764552,11.7378915 C36.2570262,14.3914617 33.9223838,17.2152655 31.789,20.1893798 C27.9652759,20.596093 24.345331,21.2225116 21.0293379,22.0525736 C20.6563578,20.4307461 20.3627405,18.7916103 20.1495379,17.1410388 C19.3533103,10.6697674 20.3355724,5.64006202 22.6195034,4.30232558 C23.1272345,3.99714729 23.7872276,3.86176744 24.5651379,3.86176744 L24.5651379,0.0848992248 C23.1438345,0.0848992248 21.8576207,0.389503876 20.7414138,1.03313178 C15.9875172,3.77686822 14.9216828,12.3304651 17.3750483,23.0690698 C6.8517931,26.3210543 0,31.5205581 0,37.0086047 C0,42.5132868 6.88613793,47.73 17.4425931,50.9653488 C15.0064,61.7372248 16.0888345,70.3074574 20.8599034,73.0517674 C21.9595103,73.6953953 23.2451517,74 24.6664552,74 C29.3190345,74 35.4095172,70.6803256 41.5675448,64.9215194 C47.7255724,70.6464806 53.8166276,73.9323101 58.4686345,73.9323101 C59.8899379,73.9323101 61.1761517,73.6271318 62.2923586,72.9835039 C67.0462552,70.2397674 68.1120897,61.6861705 65.6587241,50.9481395 C76.1482069,47.7127907 83,42.4955039 83,37.0086047 Z M60.9729448,25.7106977 C60.3467241,27.8957054 59.5682414,30.1484031 58.6890138,32.4011008 C57.9894686,31.024841 57.2503644,29.6691377 56.4726276,28.3356899 C55.6941448,26.9807442 54.8652897,25.6596434 54.0364345,24.3723876 C56.4388552,24.7280465 58.7565586,25.1686047 60.9729448,25.7106977 Z M53.2241793,43.7494884 C51.9047655,46.036031 50.5510069,48.2044031 49.1468759,50.220186 C46.6259655,50.4398915 44.0712828,50.5586357 41.5,50.5586357 C38.9453172,50.5586357 36.3906345,50.4398915 33.8868966,50.2368217 C32.4350849,48.1482321 31.0691181,46.0010114 29.7924207,43.8005426 C28.5233296,41.6051569 27.3493617,39.3559123 26.2737931,37.0590853 C27.3436244,34.7571579 28.5120532,32.5025552 29.7758207,30.3015659 C31.0952345,28.0144496 32.4489931,25.8466512 33.8531241,23.8308682 C36.3740345,23.6111628 38.9287172,23.4924186 41.5,23.4924186 C44.0546828,23.4924186 46.6093655,23.6111628 49.1131034,23.8136589 C50.5649151,25.9022486 51.9308819,28.0494693 53.2075793,30.249938 C54.4766851,32.4455113 55.6506531,34.6949476 56.7262069,36.991969 C55.6496544,39.2907618 54.4813695,41.5452778 53.2241793,43.750062 L53.2241793,43.7494884 Z M58.6890138,41.547845 C59.5769852,43.7550712 60.3560286,46.0047534 61.0233172,48.2887287 C58.806931,48.8308217 56.4726276,49.2880155 54.0530345,49.6436744 C54.8824621,48.3397829 55.7113172,47.0014729 56.4892276,45.6298915 C57.255135,44.287133 57.9886104,42.9260549 58.6890138,41.547845 Z M41.5337724,59.619907 C39.9602069,57.9942016 38.3872138,56.1814884 36.8308207,54.200124 C38.3534414,54.267814 39.9098345,54.3188682 41.4828276,54.3188682 C43.0735655,54.3188682 44.6465586,54.2844496 46.1863517,54.200124 C44.7341454,56.0894712 43.1810165,57.8987089 41.5337724,59.619907 Z M28.9463931,49.6442481 C26.5445448,49.2885891 24.2268414,48.848031 22.0104552,48.305938 C22.6361034,46.1203566 23.4145862,43.8682326 24.2943862,41.6155349 C24.9939412,42.9916012 25.7330453,44.3471131 26.5107724,45.6803721 C27.2953835,47.0184131 28.1076228,48.3399897 28.9469655,49.6442481 L28.9463931,49.6442481 Z M41.4490552,14.3967287 C43.0226207,16.0230078 44.5961862,17.8351473 46.1525793,19.8170853 C44.6299586,19.7493953 43.0729931,19.6983411 41.5,19.6983411 C39.9098345,19.6983411 38.336269,19.732186 36.7970483,19.8170853 C38.2490527,17.9275567 39.8019906,16.1181275 41.4490552,14.3967287 Z M28.9303655,24.3729612 C28.1003655,25.6774264 27.2720828,27.0151628 26.4936,28.3873178 C25.7279513,29.7243061 24.9946658,31.0796478 24.2943862,32.452155 C23.4062212,30.2449393 22.6269867,27.995257 21.9595103,25.7112713 C24.1758966,25.185814 26.5102,24.7286202 28.9297931,24.3729612 L28.9303655,24.3729612 Z M13.6182966,45.5788372 C7.63027586,43.0215349 3.75617931,39.6674419 3.75617931,37.0086047 C3.75617931,34.3491938 7.63027586,30.9784651 13.618869,28.4383721 C15.0739448,27.8113798 16.6641103,27.2526512 18.3052207,26.7271938 C19.2697379,30.0468682 20.5387793,33.5019225 22.1117724,37.0424496 C20.5553793,40.5651938 19.3035103,44.0036124 18.3561655,47.3066512 C16.6812828,46.7811938 15.0911172,46.2052558 13.618869,45.5788372 L13.6182966,45.5788372 Z M22.7202483,69.7825736 C20.4191448,68.4614729 19.4214276,63.4311938 20.1993379,56.9610698 C20.3859448,55.3686357 20.690469,53.691876 21.0625379,51.9812713 C24.378531,52.794124 27.9990483,53.4211163 31.8056,53.8272558 C34.089531,56.9610698 36.4576069,59.8063411 38.8434276,62.2959535 C33.3282207,67.4283411 28.1507379,70.2397674 24.6321103,70.2397674 C23.8708,70.2225581 23.2279793,70.0705426 22.7202483,69.7825736 Z M62.8510345,56.8761705 C63.6466897,63.3462946 62.665,68.3765736 60.381069,69.7143101 C59.8733379,70.0194884 59.2133448,70.1554419 58.4354345,70.1554419 C54.9334069,70.1554419 49.7398966,67.3606512 44.2241172,62.2621085 C46.7435462,59.6085383 49.0781886,56.7847345 51.2115724,53.8106202 C55.0352966,53.403907 58.6552414,52.7774884 61.9712345,51.9474264 C62.3604759,53.658031 62.665,55.3009457 62.8510345,56.8761705 Z M69.3651034,45.5788372 C67.9094552,46.2052558 66.3198621,46.7645581 64.6781793,47.2894419 C63.7142345,43.9697674 62.4451931,40.5147132 60.8716276,36.9747597 C62.4285931,33.4514419 63.6798897,30.0130233 64.6278069,26.7105581 C66.2386378,27.2113532 67.825029,27.7879304 69.3817034,28.4383721 C75.3702966,30.9956744 79.2443931,34.3491938 79.2443931,37.0086047 C79.2277931,39.6674419 75.3536966,43.0381705 69.364531,45.5788372 L69.3651034,45.5788372 Z" id="Shape" fill="url(#linearGradient-5)" fill-rule="nonzero"></path>
                        <g id="b-link" transform="translate(34.000000, 29.000000)" fill="#FC997A">
                            <ellipse id="b" cx="7.75428571" cy="7.748" rx="7.75428571" ry="7.748"></ellipse>
                        </g>
                    </g>
                </g>
            </g>
        </g>
    </g>
</svg>