<svg xmlns="http://www.w3.org/2000/svg" xmlns:xlink="http://www.w3.org/1999/xlink" width="314" height="366" viewBox="0 0 314 366">
  <defs>
    <path id="astronaut-a" d="M1.57396097,3.33811691 L0,3.33812154 C0,2.45908287 0.37392229,1.59896022 1.02594929,0.97806961 C1.6791448,0.3560663 2.58240083,-1.11022302e-16 3.50552149,-1.11022302e-16 L28.044172,-1.11022302e-16 C28.9672926,-1.11022302e-16 29.8693801,0.3560663 30.5225756,0.97806961 C31.1757712,1.59896022 31.5496934,2.45908287 31.5496934,3.33812154 C31.5415139,6.2133569 30.5167331,8.96174364 28.8656325,11.3306972 C27.2063523,13.6952 24.8880341,15.7125381 22.0485617,16.9966022 C20.1579171,17.8478232 18.0253915,18.3607812 15.7748467,18.3596685 C12.39085,18.3596685 9.30715957,17.210242 6.84044094,15.4822077 C4.36554277,13.7463845 2.446854,11.434179 1.2561452,8.84490939 C0.46623436,7.11687513 0.00116851,5.25420331 6.66133815e-16,3.33812154 L1.57396118,3.33812154 L1.57396097,3.33811691 Z"/>
  </defs>
  <g fill="none" fill-rule="evenodd" transform="translate(-2)">
    <g fill="#FFF" opacity=".47" transform="translate(23)">
      <path d="M130.518883,266 C202.387353,266 261,207.574302 261,135.981189 C261,64.388077 202.387353,6 130.518883,6 C58.6504124,6 0,64.388077 0,135.981189 C0,207.574302 58.6504124,266 130.518883,266" opacity=".1"/>
      <path d="M129.518816,249 C191.460612,249 242,198.460612 242,136.481184 C242,74.5393879 191.460612,24 129.518816,24 C67.5393879,24 17,74.5393879 17,136.481184 C17,198.460612 67.5393879,249 129.518816,249" opacity=".1"/>
      <path d="M131.018964,222 C178.35215,222 217,183.576847 217,136.481147 C217,89.4231533 178.35215,51 131.018964,51 C83.6478501,51 45,89.4231533 45,136.481147 C45,183.576847 83.6478501,222 131.018964,222" opacity=".1"/>
      <path d="M130.518853 194C162.719304 194 189 167.719304 189 135.481147 189 103.280696 162.719304 77 130.518853 77 98.2806961 77 72 103.280696 72 135.481147 72 167.719304 98.2806961 194 130.518853 194M43.5177305 5C44.9007092 5 46 3.87323944 46 2.5 46 1.12676056 44.9007092 0 43.5177305 0 42.0992908 0 41 1.12676056 41 2.5 41 3.87323944 42.0992908 5 43.5177305 5M58.5 19C61 19 63 17 63 14.5 63 12.0384615 61 10 58.5 10 56.0384615 10 54 12.0384615 54 14.5 54 17 56.0384615 19 58.5 19" opacity=".1"/>
      <path d="M175.979381 177C177.092784 177 178 176.092784 178 175.020619 178 173.907216 177.092784 173 175.979381 173 174.907216 173 174 173.907216 174 175.020619 174 176.092784 174.907216 177 175.979381 177M130.020619 136C131.092784 136 132 135.134021 132 134.020619 132 132.907216 131.092784 132 130.020619 132 128.907216 132 128 132.907216 128 134.020619 128 135.134021 128.907216 136 130.020619 136" opacity=".1"/>
    </g>
    <g transform="rotate(20 -506.731 211.565)">
      <path fill="#FFF" d="M24.4483871 6.82208588C23.4225806 6.82208588 22.0548387 6.82208588 21.0290323 6.48098159L23.7645161 20.807362C24.1064516 23.195092 26.5 24.5595092 28.5516128 24.2184049 30.9451612 23.8773006 32.3129031 21.4895706 31.6290322 19.4429448L29.2354838 6.48098159C27.8677418 6.48098159 26.1580645 6.82208588 24.4483871 6.82208588zM3.93225805 30.3582821L4.61612902 30.3582821C6.66774193 30.3582821 8.37741933 28.9938649 8.71935482 26.9472392 10.0870968 19.1018405 13.5064516 11.597546 19.3193548 5.798773 16.583871 4.77546011 14.5322581 2.72883435 13.1645161.341104289 6.66774193 7.16319017 2.22258065 16.3730061.512903229 25.9239264.17096774 27.6294478 1.53870968 29.6760735 3.93225805 30.3582821z" transform="translate(0 90.393)"/>
      <polygon fill="#FB8E82" points="40.861 40.933 61.035 .682 70.61 5.458 53.171 40.933"/>
      <path fill="#FFF" d="M21.7129032,77.771779 L33.3387096,83.2294477 C40.1774193,86.2993863 48.0419354,82.8883434 50.4354838,75.7251533 L57.9580644,51.8478527 C59.6677418,46.0490797 56.932258,39.5680981 51.4612902,37.180368 L46.332258,34.7926379 C40.8612902,32.0638036 34.0225805,34.1104293 30.9451612,39.2269938 L17.2677419,60.37546 C12.4806452,66.174233 14.8741935,74.7018404 21.7129032,77.771779 Z"/>
      <ellipse cx="24.448" cy="84.253" fill="#FB8E82" rx="12.994" ry="12.962"/>
    </g>
    <g transform="scale(-1 1) rotate(20 -665.731 -690.17)">
      <path fill="#FFF" d="M24.4483871 6.82208588C23.4225806 6.82208588 22.0548387 6.82208588 21.0290323 6.48098159L23.7645161 20.807362C24.1064516 23.195092 26.5 24.5595092 28.5516128 24.2184049 30.9451612 23.8773006 32.3129031 21.4895706 31.6290322 19.4429448L29.2354838 6.48098159C27.8677418 6.48098159 26.1580645 6.82208588 24.4483871 6.82208588zM3.93225805 30.3582821L4.61612902 30.3582821C6.66774193 30.3582821 8.37741933 28.9938649 8.71935482 26.9472392 10.0870968 19.1018405 13.5064516 11.597546 19.3193548 5.798773 16.583871 4.77546011 14.5322581 2.72883435 13.1645161.341104289 6.66774193 7.16319017 2.22258065 16.3730061.512903229 25.9239264.17096774 27.6294478 1.53870968 29.6760735 3.93225805 30.3582821z" transform="translate(0 90.393)"/>
      <polygon fill="#FB8E82" points="40.861 40.933 61.035 .682 70.61 5.458 53.171 40.933"/>
      <path fill="#FFF" d="M21.7129032,77.771779 L33.3387096,83.2294477 C40.1774193,86.2993863 48.0419354,82.8883434 50.4354838,75.7251533 L57.9580644,51.8478527 C59.6677418,46.0490797 56.932258,39.5680981 51.4612902,37.180368 L46.332258,34.7926379 C40.8612902,32.0638036 34.0225805,34.1104293 30.9451612,39.2269938 L17.2677419,60.37546 C12.4806452,66.174233 14.8741935,74.7018404 21.7129032,77.771779 Z"/>
      <ellipse cx="24.448" cy="84.253" fill="#FB8E82" rx="12.994" ry="12.962"/>
    </g>
    <path fill="#EBEBEB" d="M159.001343,366 C174.649216,366 187.950176,351.825349 193,332 L125,332 C130.051839,351.824401 143.348769,366 159.001343,366 Z"/>
    <path fill="#FFF" d="M159.947806,339.998722 C159.314769,340.000426 158.682586,340.000426 158.049549,339.998722 C136.36056,339.924582 116.26655,330.058846 102.9181,312.93165 C89.4850733,295.696227 84.8308423,273.671529 90.1522822,252.506684 L110.38896,172.001704 C124.661764,180.37697 141.276207,185.188401 158.998678,185.188401 C176.722003,185.188401 193.339008,180.376118 207.612666,172 L227.84849,252.507537 C233.168221,273.672381 228.515699,295.696227 215.080964,312.93165 C201.733368,330.058846 181.63765,339.92373 159.947806,339.998722 Z"/>
    <g transform="translate(68 38)">
      <polygon fill="#FFF" points="110.436 41.924 186.709 42.086 186.723 48.076 110.45 47.914" transform="rotate(123.676 148.58 45)"/>
      <ellipse cx="169.831" cy="13.513" fill="#FB8E82" rx="12.998" ry="13"/>
      <polygon fill="#FFF" points="-3.933 42.469 72.34 42.307 72.325 48.298 -3.948 48.46" transform="rotate(56.324 34.196 45.384)"/>
      <ellipse cx="13.169" cy="13.513" fill="#FB8E82" rx="12.998" ry="13"/>
    </g>
    <ellipse cx="159.5" cy="142.855" fill="#FFF" rx="89.961" ry="89.974"/>
    <path fill="#ECDBCA" d="M159.875177,184.038046 C218.399887,184.038046 218.399887,171.859314 218.399887,143.316229 C218.399887,114.773143 206.091119,104.92457 159.875177,104.92457 C113.659235,104.92457 101.350467,114.773143 101.350467,143.316229 C101.350467,171.859314 101.350467,184.038046 159.875177,184.038046 Z"/>
    <g transform="translate(144.646 149.046)">
      <path fill="#000" d="M1.57396097,3.33811691 L0,3.33812154 C0,2.45908287 0.37392229,1.59896022 1.02594929,0.97806961 C1.6791448,0.3560663 2.58240083,-1.11022302e-16 3.50552149,-1.11022302e-16 L28.044172,-1.11022302e-16 C28.9672926,-1.11022302e-16 29.8693801,0.3560663 30.5225756,0.97806961 C31.1757712,1.59896022 31.5496934,2.45908287 31.5496934,3.33812154 C31.5415139,6.2133569 30.5167331,8.96174364 28.8656325,11.3306972 C27.2063523,13.6952 24.8880341,15.7125381 22.0485617,16.9966022 C20.1579171,17.8478232 18.0253915,18.3607812 15.7748467,18.3596685 C12.39085,18.3596685 9.30715957,17.210242 6.84044094,15.4822077 C4.36554277,13.7463845 2.446854,11.434179 1.2561452,8.84490939 C0.46623436,7.11687513 0.00116851,5.25420331 6.66133815e-16,3.33812154 L1.57396118,3.33812154 L1.57396097,3.33811691 Z"/>
      <mask id="astronaut-b" fill="#fff">
        <use xlink:href="#astronaut-a"/>
      </mask>
      <path fill="#E74144" d="M10.3722641,10.5597315 L9.7253553,10.5597315 C9.7253553,10.2549981 9.87903992,9.9568223 10.1470275,9.74158025 C10.4154953,9.52595245 11.1661487,8.48624597 16.2089255,8.48624597 C21.2517023,8.48624597 22.0018754,9.52595245 22.2703432,9.74158025 C22.5388111,9.9568223 22.6924957,10.2549981 22.6924957,10.5597315 C22.6891338,11.5564797 22.2679419,12.5092536 21.5893282,13.3304908 C20.9073527,14.150185 19.954508,14.8495288 18.7874654,15.294671 C18.0103975,15.5897609 17.1339148,15.7675863 16.2089255,15.7672006 C14.8180796,15.7672006 13.5506617,15.3687328 12.5368234,14.769681 C11.5196233,14.167929 10.7310291,13.3663645 10.2416396,12.4687511 C9.91698082,11.8696993 9.72583556,11.2239731 9.7253553,10.5597315 L10.3722641,10.5597315 Z" mask="url(#astronaut-b)" transform="matrix(1 0 0 -1 0 24.253)"/>
    </g>
    <g fill="#000" opacity=".2" transform="translate(124 146)">
      <ellipse cx="3.674" cy="3.974" rx="3.235" ry="3.05"/>
      <ellipse cx="68.366" cy="3.974" rx="3.235" ry="3.05"/>
    </g>
    <path fill="#000" d="M12.1655786 9.97318983C10.5585379 9.97318983 9.25602996 8.77258811 9.25602996 7.29127983 9.25602996 6.42859878 8.49469807 5.72683234 7.55879324 5.72683234 6.62385828 5.72683234 5.86155654 6.42859878 5.86155654 7.29127983 5.86155654 8.77258811 4.56001843 9.97318983 2.95200787 9.97318983 1.34496718 9.97318983.04245923 8.77258811.04245923 7.29127983.04245923 3.47134604 3.41462611.36301236 7.55879324.36301236 11.7039302.36301236 15.0751273 3.47134604 15.0751273 7.29127983 15.0751273 8.77258811 13.7735892 9.97318983 12.1655786 9.97318983M61.5586307 9.97318983C59.95159 9.97318983 58.6490821 8.77258811 58.6490821 7.29127983 58.6490821 6.42859878 57.8877502 5.72683234 56.9518453 5.72683234 56.0169104 5.72683234 55.2546086 6.42859878 55.2546086 7.29127983 55.2546086 8.77258811 53.9530705 9.97318983 52.34506 9.97318983 50.7380193 9.97318983 49.4355113 8.77258811 49.4355113 7.29127983 49.4355113 3.47134604 52.8076782.36301236 56.9518453.36301236 61.0969823.36301236 64.4681794 3.47134604 64.4681794 7.29127983 64.4681794 8.77258811 63.1666413 9.97318983 61.5586307 9.97318983" transform="translate(128.149 130.368)"/>
    <g transform="translate(121 229)">
      <path fill="#232C3D" stroke="#232C3D" stroke-width="7" d="M75,33.5 C75,28.3098087 68.7792056,23.6914181 59.228972,20.9203838 C61.5946262,11.1997713 60.7622664,3.50245364 56.25,0.907357986 C51.7377336,-1.68773767 44.6845794,1.43517405 37.5,8.34076757 C30.3154206,1.43517405 23.2184579,-1.68773767 18.75,0.907357986 C14.2815421,3.50245364 13.4053738,11.2437559 15.771028,20.9203838 C6.22079439,23.7354028 0,28.3098087 0,33.5 C0,38.6901913 6.22079439,43.3085819 15.771028,46.0796162 C13.4053738,55.8002287 14.2377336,63.4975464 18.75,66.092642 C23.2622664,68.6877377 30.3154206,65.5648259 37.5,58.6592324 C44.6845794,65.5648259 51.7815421,68.6877377 56.25,66.092642 C60.7184579,63.4975464 61.5946262,55.7562441 59.228972,46.0796162 C68.7792056,43.3085819 75,38.6901913 75,33.5 Z"/>
      <g stroke="#FFF" stroke-width="2">
        <path d="M37.9560694,8.40784314 C30.7514451,1.53267974 23.6346821,-1.57647059 19.1537572,1.00718954 C14.6728324,3.59084967 13.7942197,11.2980392 16.166474,20.9320261 C20.0323699,19.7934641 24.4693642,18.9614379 29.2578035,18.5235294 C32.0693642,14.5823529 35.0127168,11.2104575 37.9560694,8.40784314 Z M37.9560694,58.548366 C45.1606936,65.4235294 52.2774566,68.5326797 56.7583815,65.9490196 C61.2393064,63.3653595 62.1179191,55.6581699 59.7456647,46.024183 C55.8797688,47.1627451 51.4427746,47.9947712 46.6543353,48.4326797 C43.8427746,52.3300654 40.899422,55.7457516 37.9560694,58.548366 Z"/>
        <path d="M29.3017341,48.4326797 C24.5132948,47.9509804 20.0763006,47.1189542 16.2104046,46.024183 C13.8381503,55.7019608 14.6728324,63.3653595 19.1976879,65.9490196 C23.7225434,68.5326797 30.7953757,65.4235294 38,58.548366 C35.0127168,55.7457516 32.0693642,52.3300654 29.3017341,48.4326797 Z M46.6104046,18.5235294 C51.3988439,19.0052288 55.8358382,19.8372549 59.7017341,20.9320261 C62.0739884,11.2542484 61.2393064,3.59084967 56.7144509,1.00718954 C52.1895954,-1.57647059 45.116763,1.53267974 37.9121387,8.40784314 C40.899422,11.2104575 43.8427746,14.5823529 46.6104046,18.5235294 Z"/>
        <path d="M46.6104046,18.5235294 C43.7988439,14.6261438 40.8554913,11.2104575 37.9560694,8.40784314 C35.0127168,11.2104575 32.0693642,14.6261438 29.3017341,18.5235294 L46.6104046,18.5235294 Z M29.3017341,48.4326797 C32.1132948,52.3300654 35.0566474,55.7457516 37.9560694,58.548366 C40.899422,55.7457516 43.8427746,52.3300654 46.6104046,48.4326797 L29.3017341,48.4326797 Z M75.5606936,33.4562092 C75.5606936,28.2888889 69.3225434,23.6908497 59.7456647,20.9320261 C58.7791908,24.8732026 57.2855491,29.0771242 55.3086705,33.4562092 C57.2855491,37.8352941 58.7791908,42.0830065 59.7456647,45.9803922 C69.3225434,43.2215686 75.5606936,38.6235294 75.5606936,33.4562092 Z M16.166474,20.9320261 C6.58959538,23.7346405 0.351445087,28.2888889 0.351445087,33.4562092 C0.351445087,38.6235294 6.58959538,43.2215686 16.166474,45.9803922 C17.132948,42.0392157 18.6265896,37.8352941 20.6034682,33.4562092 C18.6265896,29.120915 17.132948,24.8732026 16.166474,20.9320261 Z"/>
        <path d="M29.3017341,18.5235294 C24.5132948,19.0052288 20.0763006,19.8372549 16.2104046,20.9320261 C17.1768786,24.8732026 18.6705202,29.0771242 20.6473988,33.4562092 M46.6104046,48.4326797 C51.3988439,47.9509804 55.8358382,47.1189542 59.7017341,46.024183 C58.7352601,42.0830065 57.2416185,37.879085 55.2647399,33.5 M55.3086705,33.4562092 C57.2855491,29.0771242 58.7791908,24.8294118 59.7456647,20.9320261 C55.8797688,19.7934641 51.4427746,18.9614379 46.6543353,18.5235294 M20.6034682,33.4562092 C18.6265896,37.8352941 17.132948,42.0830065 16.166474,45.9803922 C20.0323699,47.1189542 24.4693642,47.9509804 29.2578035,48.3888889"/>
      </g>
      <path fill="#232C3D" d="M22,44 C23.2677596,46.4347826 24.9726776,49.0869565 27.0273224,52 C30.8306011,57.3913043 34.6775956,61.7826087 34.7213115,61.826087 L35.6830601,62.9565217 C36.2513661,63.6086957 37.1256831,64 38,64 C38.8743169,64 39.704918,63.6086957 40.3169399,62.9565217 L41.3224044,61.826087 C41.3661202,61.7826087 45.2131148,57.3913043 49.0163934,52 C51.0710383,49.0869565 52.7322404,46.4782609 54,44.0869565"/>
      <path fill="#FB8E82" stroke="#FFF" stroke-width="2" d="M53,32.8196721 C53,40.9945355 38.5,58 38.5,58 C38.5,58 24,40.9945355 24,32.8196721 C24,24.6448087 30.5014749,18 38.5,18 C46.4985251,18 53,24.6448087 53,32.8196721 Z"/>
      <circle cx="38.5" cy="33.5" r="5.5" fill="#232C3D" stroke="#FFF" stroke-width="2"/>
    </g>
  </g>
</svg>
