<svg width="314" height="366" xmlns="http://www.w3.org/2000/svg" xmlns:xlink="http://www.w3.org/1999/xlink"><defs><path d="M58.525 79.328c58.524 0 58.524-12.18 58.524-40.722 0-28.543-12.308-38.392-58.524-38.392S0 10.063 0 38.606c0 28.543 0 40.722 58.525 40.722z" id="a"/><path d="M1.574 3.338H0C0 2.46.374 1.6 1.026.978A3.622 3.622 0 0 1 3.506 0h24.538c.923 0 1.825.356 2.479.978a3.277 3.277 0 0 1 1.027 2.36c-.008 2.875-1.033 5.624-2.684 7.993a16.814 16.814 0 0 1-6.817 5.666 15.274 15.274 0 0 1-6.274 1.363c-3.384 0-6.468-1.15-8.935-2.878-2.474-1.736-4.393-4.048-5.584-6.637C.466 7.117.001 5.255 0 3.338h1.574z" id="b"/><linearGradient x1="0%" y1="50%" y2="50%" id="d"><stop stop-color="#FA709A" offset="0%"/><stop stop-color="#FEE140" offset="100%"/></linearGradient></defs><g fill="none" fill-rule="evenodd"><g opacity=".47" fill="#FFF"><path d="M151.519 266C223.387 266 282 207.574 282 135.981S223.387 6 151.519 6C79.65 6 21 64.388 21 135.981 21 207.574 79.65 266 151.519 266" opacity=".1"/><path d="M150.519 249C212.46 249 263 198.46 263 136.481 263 74.54 212.46 24 150.519 24 88.539 24 38 74.54 38 136.481 38 198.461 88.54 249 150.519 249" opacity=".1"/><path d="M152.019 222C199.352 222 238 183.577 238 136.481 238 89.423 199.352 51 152.019 51 104.648 51 66 89.423 66 136.481 66 183.577 104.648 222 152.019 222" opacity=".1"/><path d="M151.519 194c32.2 0 58.481-26.28 58.481-58.519C210 103.281 183.72 77 151.519 77 119.28 77 93 103.28 93 135.481 93 167.72 119.28 194 151.519 194M64.518 5A2.488 2.488 0 0 0 67 2.5C67 1.127 65.9 0 64.518 0A2.496 2.496 0 0 0 62 2.5C62 3.873 63.1 5 64.518 5M79.5 19c2.5 0 4.5-2 4.5-4.5 0-2.462-2-4.5-4.5-4.5-2.462 0-4.5 2.038-4.5 4.5 0 2.5 2.038 4.5 4.5 4.5" opacity=".1"/><path d="M196.98 177c1.113 0 2.02-.907 2.02-1.98 0-1.113-.907-2.02-2.02-2.02-1.073 0-1.98.907-1.98 2.02 0 1.073.907 1.98 1.98 1.98M151.02 136a1.98 1.98 0 0 0 1.98-1.98c0-1.113-.907-2.02-1.98-2.02-1.113 0-2.02.907-2.02 2.02 0 1.114.907 1.98 2.02 1.98" opacity=".1"/></g><g transform="rotate(20 -507.731 205.893)"><g fill="#FFF"><path d="M24.448 97.215c-1.025 0-2.393 0-3.419-.341l2.736 14.326c.341 2.388 2.735 3.752 4.787 3.411 2.393-.341 3.76-2.729 3.077-4.775l-2.394-12.962c-1.367 0-3.077.34-4.787.34zM3.932 120.75h.684c2.052 0 3.761-1.363 4.103-3.41 1.368-7.846 4.787-15.35 10.6-21.149-2.735-1.023-4.787-3.07-6.154-5.457C6.668 97.556 2.223 106.766.513 116.317c-.342 1.705 1.026 3.752 3.42 4.434z"/></g><path fill="#FB8E82" d="M40.861 40.933L61.035.683l9.575 4.775L53.17 40.933z"/><path d="M21.713 77.772l11.626 5.457c6.838 3.07 14.703-.34 17.096-7.504l7.523-23.877c1.71-5.799-1.026-12.28-6.497-14.668l-5.129-2.387c-5.47-2.73-12.31-.683-15.387 4.434L17.268 60.375c-4.787 5.8-2.394 14.327 4.445 17.397z" fill="#FFF"/><ellipse fill="#FB8E82" cx="24.448" cy="84.253" rx="12.994" ry="12.962"/></g><g transform="scale(-1 1) rotate(20 -664.731 -684.498)"><g fill="#FFF"><path d="M24.448 97.215c-1.025 0-2.393 0-3.419-.341l2.736 14.326c.341 2.388 2.735 3.752 4.787 3.411 2.393-.341 3.76-2.729 3.077-4.775l-2.394-12.962c-1.367 0-3.077.34-4.787.34zM3.932 120.75h.684c2.052 0 3.761-1.363 4.103-3.41 1.368-7.846 4.787-15.35 10.6-21.149-2.735-1.023-4.787-3.07-6.154-5.457C6.668 97.556 2.223 106.766.513 116.317c-.342 1.705 1.026 3.752 3.42 4.434z"/></g><path fill="#FB8E82" d="M40.861 40.933L61.035.683l9.575 4.775L53.17 40.933z"/><path d="M21.713 77.772l11.626 5.457c6.838 3.07 14.703-.34 17.096-7.504l7.523-23.877c1.71-5.799-1.026-12.28-6.497-14.668l-5.129-2.387c-5.47-2.73-12.31-.683-15.387 4.434L17.268 60.375c-4.787 5.8-2.394 14.327 4.445 17.397z" fill="#FFF"/><ellipse fill="#FB8E82" cx="24.448" cy="84.253" rx="12.994" ry="12.962"/></g><path d="M157.001 366c15.648 0 28.95-14.175 33.999-34h-68c5.052 19.824 18.349 34 34.001 34z" fill="#EBEBEB"/><path d="M157.948 339.999h-1.898c-21.69-.074-41.783-9.94-55.132-27.067-13.433-17.236-18.087-39.26-12.766-60.425l20.237-80.505c14.273 8.375 30.887 13.186 48.61 13.186s34.34-4.812 48.614-13.188l20.235 80.508c5.32 21.164.668 43.188-12.767 60.424-13.348 17.127-33.443 26.992-55.133 27.067z" fill="#FFF"/><g transform="translate(66 38)"><path fill="#FFF" d="M172.29 14.963l-42.428 63.383-4.993-3.31 42.428-63.383z"/><ellipse fill="#FB8E82" cx="169.831" cy="13.513" rx="12.998" ry="13"/><path fill="#FFF" d="M15.479 12.037l42.427 63.384-4.993 3.309-42.427-63.384z"/><ellipse fill="#FB8E82" cx="13.169" cy="13.513" rx="12.998" ry="13"/><ellipse fill="#FFF" cx="91.5" cy="104.855" rx="89.961" ry="89.974"/></g><use fill="#ECDBCA" xlink:href="#a" transform="translate(99.35 104.71)"/><g transform="translate(142.646 149.046)"><mask id="c" fill="#fff"><use xlink:href="#b"/></mask><use fill="#000" xlink:href="#b"/><path d="M10.372 10.56h-.647c0-.305.154-.603.422-.818.268-.216 1.02-1.256 6.062-1.256 5.043 0 5.793 1.04 6.061 1.256.269.215.422.513.422.818-.003.996-.424 1.95-1.103 2.77-.682.82-1.634 1.52-2.802 1.965a7.274 7.274 0 0 1-6.25-.525c-1.017-.602-1.806-1.404-2.295-2.301-.325-.6-.516-1.245-.517-1.91h.647z" fill="#E74144" mask="url(#c)" transform="matrix(1 0 0 -1 0 24.253)"/></g><g transform="translate(122.44 146.924)" fill="#000" opacity=".2"><ellipse cx="3.235" cy="3.05" rx="3.235" ry="3.05"/><ellipse cx="67.927" cy="3.05" rx="3.235" ry="3.05"/></g><g fill="#000"><path d="M138.314 140.342c-1.607 0-2.91-1.201-2.91-2.682 0-.863-.76-1.565-1.697-1.565-.935 0-1.697.702-1.697 1.565 0 1.481-1.301 2.682-2.91 2.682-1.606 0-2.909-1.201-2.909-2.682 0-3.82 3.372-6.929 7.516-6.929 4.146 0 7.517 3.109 7.517 6.929 0 1.481-1.302 2.682-2.91 2.682M187.707 140.342c-1.607 0-2.91-1.201-2.91-2.682 0-.863-.76-1.565-1.697-1.565-.934 0-1.697.702-1.697 1.565 0 1.481-1.301 2.682-2.91 2.682-1.606 0-2.909-1.201-2.909-2.682 0-3.82 3.372-6.929 7.516-6.929 4.146 0 7.517 3.109 7.517 6.929 0 1.481-1.302 2.682-2.91 2.682"/></g><g><path d="M83 37.009c0-5.505-6.886-10.722-17.443-13.957C67.994 12.28 66.911 3.709 62.14.965c-1.1-.643-2.386-.948-3.79-.948v3.777c.779 0 1.405.153 1.93.44 2.3 1.322 3.298 6.352 2.52 12.822-.187 1.592-.491 3.27-.863 4.98-3.316-.813-6.937-1.44-10.743-1.847-2.284-3.133-4.652-5.979-7.038-8.468 5.515-5.132 10.693-7.944 14.211-7.944V0c-4.652 0-10.743 3.32-16.9 9.078-6.159-5.724-12.25-9.01-16.902-9.01v3.777c3.502 0 8.696 2.794 14.211 7.893a79.979 79.979 0 0 0-6.987 8.451c-3.824.407-7.444 1.034-10.76 1.864a51.151 51.151 0 0 1-.88-4.912c-.796-6.471.187-11.5 2.47-12.839.508-.305 1.168-.44 1.946-.44V.085c-1.421 0-2.707.305-3.824.948-4.753 2.744-5.82 11.297-3.366 22.036C6.852 26.321 0 31.521 0 37.01c0 5.504 6.886 10.721 17.443 13.956-2.437 10.772-1.354 19.342 3.417 22.087 1.1.643 2.385.948 3.806.948 4.653 0 10.744-3.32 16.902-9.078 6.158 5.724 12.249 9.01 16.9 9.01 1.422 0 2.708-.305 3.824-.948 4.754-2.744 5.82-11.298 3.367-22.036C76.149 47.713 83 42.496 83 37.008zM60.973 25.71a76.592 76.592 0 0 1-2.284 6.69 80.186 80.186 0 0 0-2.216-4.065 92.078 92.078 0 0 0-2.437-3.964c2.403.356 4.72.797 6.937 1.339zm-7.749 18.038c-1.32 2.287-2.673 4.455-4.077 6.471-2.521.22-5.076.339-7.647.339a94.43 94.43 0 0 1-7.613-.322 93.382 93.382 0 0 1-4.095-6.436 88.262 88.262 0 0 1-3.518-6.742 88.36 88.36 0 0 1 3.502-6.757c1.32-2.288 2.673-4.455 4.077-6.471 2.521-.22 5.076-.339 7.647-.339 2.555 0 5.11.12 7.613.322a93.382 93.382 0 0 1 4.095 6.436 88.262 88.262 0 0 1 3.518 6.742 94.874 94.874 0 0 1-3.502 6.758zm5.465-2.201a72.644 72.644 0 0 1 2.334 6.74 75.8 75.8 0 0 1-6.97 1.356 92.842 92.842 0 0 0 2.436-4.014 96.244 96.244 0 0 0 2.2-4.082zM41.534 59.62a69.749 69.749 0 0 1-4.703-5.42c1.522.068 3.079.119 4.652.119 1.59 0 3.164-.035 4.703-.119a66.09 66.09 0 0 1-4.652 5.42zm-12.588-9.976a76.251 76.251 0 0 1-6.936-1.338 76.148 76.148 0 0 1 2.284-6.69 80.186 80.186 0 0 0 2.217 4.064c.784 1.338 1.597 2.66 2.436 3.964zM41.45 14.397a69.764 69.764 0 0 1 4.704 5.42c-1.523-.068-3.08-.119-4.653-.119-1.59 0-3.164.034-4.703.12a66.09 66.09 0 0 1 4.652-5.421zM28.93 24.373a92.871 92.871 0 0 0-2.436 4.014 95.716 95.716 0 0 0-2.2 4.065 72.644 72.644 0 0 1-2.334-6.74 81.897 81.897 0 0 1 6.97-1.339zM13.618 45.579c-5.988-2.557-9.862-5.912-9.862-8.57 0-2.66 3.874-6.03 9.863-8.57 1.455-.628 3.045-1.186 4.686-1.712.965 3.32 2.234 6.775 3.807 10.315-1.557 3.523-2.808 6.962-3.756 10.265a51.596 51.596 0 0 1-4.737-1.728zm9.102 24.204c-2.3-1.322-3.299-6.352-2.52-12.822.186-1.592.49-3.27.863-4.98 3.316.813 6.936 1.44 10.743 1.846 2.284 3.134 4.652 5.98 7.037 8.469-5.515 5.132-10.692 7.944-14.21 7.944-.762-.017-1.405-.17-1.913-.457zm40.131-12.907c.796 6.47-.186 11.5-2.47 12.838-.508.305-1.168.441-1.946.441-3.502 0-8.695-2.794-14.21-7.893a79.979 79.979 0 0 0 6.987-8.451c3.823-.407 7.443-1.034 10.76-1.864.388 1.711.693 3.354.879 4.93zm6.514-11.297c-1.456.626-3.045 1.186-4.687 1.71-.964-3.32-2.233-6.774-3.806-10.314 1.557-3.524 2.808-6.962 3.756-10.264 1.61.5 3.197 1.077 4.754 1.727 5.988 2.558 9.862 5.911 9.862 8.57-.016 2.66-3.89 6.03-9.88 8.57h.001z" fill="url(#d)" fill-rule="nonzero" transform="translate(116 226)"/><ellipse cx="7.754" cy="7.748" rx="7.754" ry="7.748" transform="translate(150 255)" fill="#FC997A"/></g></g></svg>