<?xml version="1.0" encoding="UTF-8"?>
<svg width="838px" height="942px" viewBox="0 0 838 942" version="1.1" xmlns="http://www.w3.org/2000/svg" xmlns:xlink="http://www.w3.org/1999/xlink">
    <!-- Generator: Sketch 52.6 (67491) - http://www.bohemiancoding.com/sketch -->
    <title>illustration-bg</title>
    <desc>Created with Sketch.</desc>
    <defs>
        <linearGradient x1="9.12985159%" y1="19.0723277%" x2="88.3020127%" y2="87.1090522%" id="linearGradient-1">
            <stop stop-color="#2F325E" offset="0%"></stop>
            <stop stop-color="#1F2E61" offset="100%"></stop>
        </linearGradient>
        <path d="M59.0543631,228.978832 C17.2377202,400.075245 249.23716,514.962734 86.0553095,615.895057 C-77.1265411,716.827379 8.48837801,978.744694 206.47208,978.744694 C330.363352,978.744694 343.640978,897.182768 590.532633,878.108097 C755.12707,865.39165 855.68636,879.218845 892.210505,919.589682 L892.210505,135.673159 C883.798222,80.6588989 817.23098,39.2674153 692.508778,11.4987083 C505.425475,-30.1543522 100.871006,57.882418 59.0543631,228.978832 Z" id="path-2"></path>
    </defs>
    <g id="Page-1" stroke="none" stroke-width="1" fill="none" fill-rule="evenodd">
        <g id="reactjs-girls-conf" transform="translate(-602.000000, 0.000000)">
            <g id="illustration-bg" transform="translate(603.000000, -68.000000)">
                <g id="bg">
                    <path d="M59.0543631,259.283645 C17.2377202,430.380059 249.23716,545.267548 86.0553095,646.19987 C-77.1265411,747.132193 8.48837801,1009.04951 206.47208,1009.04951 C330.363352,1009.04951 393.315441,858.713299 587.117529,860.490088 C716.318921,861.674615 830.530425,878.950749 929.752042,912.318492 C929.752042,607.515225 929.752042,352.264725 929.752042,146.566993 C929.752042,43.767462 400.585379,58.8911588 322.596057,78.3992788 C244.606735,97.9073987 100.871006,88.1872318 59.0543631,259.283645 Z" id="Path-2" stroke-opacity="0.2" stroke="#2E335B" fill-rule="nonzero"></path>
                    <g id="Group-5" transform="translate(40.178160, 0.000000)">
                        <mask id="mask-3" fill="white">
                            <use xlink:href="#path-2"></use>
                        </mask>
                        <use id="Path-2-Copy" fill="url(#linearGradient-1)" fill-rule="nonzero" xlink:href="#path-2"></use>
                        <g id="stars" opacity="0.364606585" mask="url(#mask-3)">
                            <g transform="translate(75.334050, 86.134404)">
                                <g id="stars" transform="translate(60.267240, 14.142246)">
                                    <polyline id="Fill-175" fill="#FFFFFF" points="7.89401833 266.476469 12.053448 268.197602 7.89401833 269.918736 6.02628783 273.753485 4.1594297 269.918736 0 268.197602 4.1594297 266.476469 6.02628783 262.64172 7.89401833 266.476469"></polyline>
                                    <polyline id="Fill-175-Copy-2" fill="#FFFFFF" points="289.141139 266.476469 293.300569 268.197602 289.141139 269.918736 287.273409 273.753485 285.40655 269.918736 281.247121 268.197602 285.40655 266.476469 287.273409 262.64172 289.141139 266.476469"></polyline>
                                    <polyline id="Fill-175-Copy-3" fill="#FFFFFF" points="168.606659 175.562028 172.766088 177.283161 168.606659 179.004294 166.738928 182.839043 164.87207 179.004294 160.71264 177.283161 164.87207 175.562028 166.738928 171.727278 168.606659 175.562028"></polyline>
                                    <polyline id="Fill-175-Copy" fill="#FFFFFF" points="401.639987 62.424056 405.799417 64.1451893 401.639987 65.8663225 399.772257 69.7010718 397.905399 65.8663225 393.745969 64.1451893 397.905399 62.424056 399.772257 58.5893067 401.639987 62.424056"></polyline>
                                    <ellipse id="Oval" fill="#FFFFFF" cx="16.573491" cy="338.908835" rx="2.51113501" ry="2.52540115"></ellipse>
                                    <ellipse id="Oval-Copy" fill="#FFFFFF" cx="153.179235" cy="390.427018" rx="2.51113501" ry="2.52540115"></ellipse>
                                    <ellipse id="Oval-Copy-2" fill="#FFFFFF" cx="333.980956" cy="164.151075" rx="2.51113501" ry="2.52540115"></ellipse>
                                    <ellipse id="Oval-Copy-6" fill="#FFFFFF" cx="273.211489" cy="133.341181" rx="2.00890801" ry="2.02032092"></ellipse>
                                    <ellipse id="Oval-Copy-3" fill="#FFFFFF" cx="183.312855" cy="1.51524069" rx="1.506681" ry="1.51524069"></ellipse>
                                    <ellipse id="Oval-Copy-4" fill="#FFFFFF" cx="121.036707" cy="17.6778081" rx="1.506681" ry="1.51524069"></ellipse>
                                    <ellipse id="Oval-Copy-5" fill="#FFFFFF" cx="1.506681" cy="155.059631" rx="1.506681" ry="1.51524069"></ellipse>
                                </g>
                                <g id="stars-copy-2" transform="translate(500.218093, 0.000000)">
                                    <polyline id="Fill-175" fill="#FFFFFF" points="7.89401833 266.476469 12.053448 268.197602 7.89401833 269.918736 6.02628783 273.753485 4.1594297 269.918736 0 268.197602 4.1594297 266.476469 6.02628783 262.64172 7.89401833 266.476469"></polyline>
                                    <polyline id="Fill-175-Copy-3" fill="#FFFFFF" points="168.606659 175.562028 172.766088 177.283161 168.606659 179.004294 166.738928 182.839043 164.87207 179.004294 160.71264 177.283161 164.87207 175.562028 166.738928 171.727278 168.606659 175.562028"></polyline>
                                    <ellipse id="Oval" fill="#FFFFFF" cx="16.573491" cy="338.908835" rx="2.51113501" ry="2.52540115"></ellipse>
                                    <ellipse id="Oval-Copy" fill="#FFFFFF" cx="153.179235" cy="390.427018" rx="2.51113501" ry="2.52540115"></ellipse>
                                    <ellipse id="Oval-Copy-3" fill="#FFFFFF" cx="183.312855" cy="1.51524069" rx="1.506681" ry="1.51524069"></ellipse>
                                    <ellipse id="Oval-Copy-4" fill="#FFFFFF" cx="121.036707" cy="17.6778081" rx="1.506681" ry="1.51524069"></ellipse>
                                    <ellipse id="Oval-Copy-5" fill="#FFFFFF" cx="1.506681" cy="155.059631" rx="1.506681" ry="1.51524069"></ellipse>
                                </g>
                                <g id="stars-copy" transform="translate(0.000000, 385.881296)">
                                    <polyline id="Fill-175" fill="#FFFFFF" points="7.89401833 349.309627 12.053448 351.03076 7.89401833 352.751893 6.02628783 356.586643 4.1594297 352.751893 0 351.03076 4.1594297 349.309627 6.02628783 345.474878 7.89401833 349.309627"></polyline>
                                    <polyline id="Fill-175-Copy-2" fill="#FFFFFF" points="289.141139 349.309627 293.300569 351.03076 289.141139 352.751893 287.273409 356.586643 285.40655 352.751893 281.247121 351.03076 285.40655 349.309627 287.273409 345.474878 289.141139 349.309627"></polyline>
                                    <polyline id="Fill-175-Copy-3" fill="#FFFFFF" points="168.606659 258.395185 172.766088 260.116319 168.606659 261.837452 166.738928 265.672201 164.87207 261.837452 160.71264 260.116319 164.87207 258.395185 166.738928 254.560436 168.606659 258.395185"></polyline>
                                    <polyline id="Fill-175-Copy" fill="#FFFFFF" points="401.639987 145.257214 405.799417 146.978347 401.639987 148.69948 399.772257 152.53423 397.905399 148.69948 393.745969 146.978347 397.905399 145.257214 399.772257 141.422465 401.639987 145.257214"></polyline>
                                    <polyline id="Fill-175-Copy-4" fill="#FFFFFF" points="401.639987 3.83474927 405.799417 5.55588254 401.639987 7.27701581 399.772257 11.1117651 397.905399 7.27701581 393.745969 5.55588254 397.905399 3.83474927 399.772257 0 401.639987 3.83474927"></polyline>
                                    <ellipse id="Oval" fill="#FFFFFF" cx="16.573491" cy="421.741992" rx="2.51113501" ry="2.52540115"></ellipse>
                                    <ellipse id="Oval-Copy" fill="#FFFFFF" cx="153.179235" cy="473.260176" rx="2.51113501" ry="2.52540115"></ellipse>
                                    <ellipse id="Oval-Copy-2" fill="#FFFFFF" cx="333.980956" cy="246.984233" rx="2.51113501" ry="2.52540115"></ellipse>
                                    <ellipse id="Oval-Copy-6" fill="#FFFFFF" cx="273.211489" cy="216.174339" rx="2.00890801" ry="2.02032092"></ellipse>
                                    <ellipse id="Oval-Copy-3" fill="#FFFFFF" cx="183.312855" cy="84.3483985" rx="1.506681" ry="1.51524069"></ellipse>
                                    <ellipse id="Oval-Copy-4" fill="#FFFFFF" cx="121.036707" cy="100.510966" rx="1.506681" ry="1.51524069"></ellipse>
                                    <ellipse id="Oval-Copy-5" fill="#FFFFFF" cx="1.506681" cy="237.892789" rx="1.506681" ry="1.51524069"></ellipse>
                                </g>
                                <g id="stars-copy-3" transform="translate(441.959761, 357.596803)">
                                    <polyline id="Fill-175" fill="#FFFFFF" points="7.89401833 349.309627 12.053448 351.03076 7.89401833 352.751893 6.02628783 356.586643 4.1594297 352.751893 0 351.03076 4.1594297 349.309627 6.02628783 345.474878 7.89401833 349.309627"></polyline>
                                    <polyline id="Fill-175-Copy-3" fill="#FFFFFF" points="168.606659 258.395185 172.766088 260.116319 168.606659 261.837452 166.738928 265.672201 164.87207 261.837452 160.71264 260.116319 164.87207 258.395185 166.738928 254.560436 168.606659 258.395185"></polyline>
                                    <ellipse id="Oval" fill="#FFFFFF" cx="16.573491" cy="421.741992" rx="2.51113501" ry="2.52540115"></ellipse>
                                    <ellipse id="Oval-Copy" fill="#FFFFFF" cx="153.179235" cy="473.260176" rx="2.51113501" ry="2.52540115"></ellipse>
                                    <ellipse id="Oval-Copy-6" fill="#FFFFFF" cx="273.211489" cy="216.174339" rx="2.00890801" ry="2.02032092"></ellipse>
                                    <ellipse id="Oval-Copy-3" fill="#FFFFFF" cx="183.312855" cy="84.3483985" rx="1.506681" ry="1.51524069"></ellipse>
                                    <ellipse id="Oval-Copy-4" fill="#FFFFFF" cx="121.036707" cy="100.510966" rx="1.506681" ry="1.51524069"></ellipse>
                                    <ellipse id="Oval-Copy-5" fill="#FFFFFF" cx="1.506681" cy="237.892789" rx="1.506681" ry="1.51524069"></ellipse>
                                </g>
                            </g>
                        </g>
                        <path d="M-0.330358081,825.335329 C72.9833341,789.203529 167.792017,771.137629 284.095689,771.137629 C458.551199,771.137629 478.67208,839.21439 627.830206,771.137629 C727.268956,725.753121 829.038144,721.212661 933.137768,757.516246 L878.836436,985.351001 L-5.02227001,977.135253 L-0.330358081,825.335329 Z" id="Path-3" fill-opacity="0.5" fill="#162042" fill-rule="nonzero" mask="url(#mask-3)"></path>
                        <path d="M-10.3748981,774.827306 C62.9387941,738.695506 157.747477,720.629606 274.051149,720.629606 C448.506659,720.629606 449.052458,750.240723 617.785666,720.629606 C730.274471,700.88886 832.043658,696.3484 923.093228,707.008223 L875.024611,1039.35432 L-27.210502,1066.30573 L-10.3748981,774.827306 Z" id="Path-3" fill-opacity="0.5" fill="#162042" fill-rule="nonzero" mask="url(#mask-3)"></path>
                        <g id="planet-with-shadow" mask="url(#mask-3)">
                            <g transform="translate(633.810476, 184.119969)">
                                <path d="M55.8691463,112.839192 C86.5924234,112.839192 111.635301,87.6580256 111.635301,56.7602049 C111.635301,25.8902703 86.5924234,0.709104188 55.8691463,0.709104188 C25.1775591,0.709104188 0.13468172,25.8902703 0.13468172,56.7602049 C0.13468172,87.6580256 25.1775591,112.839192 55.8691463,112.839192" id="Fill-32" fill="#5F6B9B"></path>
                                <path d="M55.8691463,0.709104188 C86.6795704,0.709104188 111.635301,25.806612 111.635301,56.7602049 C111.635301,87.741684 86.6795704,112.839192 55.8691463,112.839192 C50.2679713,111.305455 38.4555922,110.385213 40.3411363,105.08685 C41.3155982,102.465555 48.7468601,106.146523 56.1147424,106.732132 C65.9306631,107.485057 76.2773881,105.44937 77.4182215,102.270352 C79.1057042,97.5018259 67.2933252,100.680844 53.682549,99.9558044 C37.54451,99.0634486 18.9663551,94.2949221 19.4337799,86.7656698 C19.7982128,81.0211291 36.1026234,88.4109509 52.0980582,89.8610291 C68.4579259,91.3389934 84.5405078,86.8493282 85.3406756,77.3122752 C86.1804558,67.6079055 70.430617,70.0618841 52.2089726,69.6435923 C35.1836187,69.2253005 13.5870088,63.3971014 12.8343756,53.0792371 C12.0579751,41.9247892 29.4477619,46.5817712 45.9740012,46.2471378 C62.6111548,45.9125043 78.3609935,40.5862555 75.4455304,29.4596937 C73.8372723,23.3805196 63.9658944,27.2288041 51.7098579,27.7865265 C39.3191397,28.372135 24.5675302,25.6950675 23.5930683,20.6197937 C21.7629814,10.9990824 44.1359918,1.93609346 55.8691463,0.709104188" id="Fill-33" fill="#172249" opacity="0.2"></path>
                                <path d="M55.8691463,0.709104188 C57.6992332,0.709104188 59.5055528,0.792762548 61.2801825,0.960079266 C60.8602924,0.960079266 60.4404024,0.932193147 60.0284348,0.932193147 C29.2497006,0.932193147 4.27020276,26.0575871 4.27020276,57.01118 C4.27020276,86.1521752 26.3976171,110.106352 54.6490884,112.839192 C24.424926,112.169925 0.13468172,87.3233922 0.13468172,56.7602049 C0.13468172,25.806612 25.0904121,0.709104188 55.8691463,0.709104188" id="Fill-34" fill="#FFFFFF" opacity="0.130066"></path>
                            </g>
                        </g>
                    </g>
                </g>
                <g id="Group-7" transform="translate(336.349057, 322.056604)"></g>
                <g id="planet-a" transform="translate(144.505175, 665.931941) rotate(40.000000) translate(-144.505175, -665.931941) translate(116.137370, 636.382144)">
                    <path d="M28.3256029,57.5235875 C43.8645063,57.5235875 56.5206267,44.7955656 56.5206267,29.1683833 C56.5206267,13.541201 43.8645063,0.777823555 28.3256029,0.777823555 C12.7766549,0.777823555 0.0904008602,13.541201 0.0904008602,29.1683833 C0.0904008602,44.7955656 12.7766549,57.5235875 28.3256029,57.5235875" id="Fill-44" fill="#182349"></path>
                    <path d="M47.299739,18.5263429 C47.7316542,18.5263429 48.0430349,18.879899 48.0430349,19.2688108 C48.0430349,19.6577226 47.7316542,20.0112787 47.299739,20.0112787 C46.9180465,20.0112787 46.5664876,19.6577226 46.5664876,19.2688108 C46.5664876,18.879899 46.9180465,18.5263429 47.299739,18.5263429 Z M35.5275381,10.3945511 C36.5822148,10.3945511 37.4661343,11.2430859 37.4661343,12.33911 C37.4661343,13.3997785 36.5822148,14.2836689 35.5275381,14.2836689 C34.4728614,14.2836689 33.5989864,13.3997785 33.5989864,12.33911 C33.5989864,11.2430859 34.4728614,10.3945511 35.5275381,10.3945511 Z M44.6379359,52.3263119 C40.027492,55.6143842 34.4025496,57.5235875 28.3256029,57.5235875 C12.7465213,57.5235875 0.0904008602,44.8309213 0.0904008602,29.1683833 C0.0904008602,24.7842869 1.07476578,20.6476798 2.87273845,16.9353401 C7.47313778,13.6472678 13.0980802,11.7027089 19.1850714,11.7027089 C34.7541085,11.7027089 47.3800953,24.3953751 47.3800953,40.0932687 C47.3800953,44.4773651 46.3957304,48.6139722 44.6379359,52.3263119 Z" id="Fill-45" fill="#1B2750"></path>
                    <path d="M10.0746736,27.082402 C11.159484,27.082402 12.0132699,27.9662924 12.0132699,29.0269608 C12.0132699,30.0876293 11.159484,30.9715197 10.0746736,30.9715197 C9.01999694,30.9715197 8.14612196,30.0876293 8.14612196,29.0269608 C8.14612196,27.9662924 9.01999694,27.082402 10.0746736,27.082402 Z M36.6223929,25.3499768 C37.6770696,25.3499768 38.5509446,26.2338672 38.5509446,27.2945357 C38.5509446,28.3552041 37.6770696,29.2390945 36.6223929,29.2390945 C35.5275381,29.2390945 34.6837967,28.3552041 34.6837967,27.2945357 C34.6837967,26.2338672 35.5275381,25.3499768 36.6223929,25.3499768 Z M43.1212103,47.4825925 C44.175887,47.4825925 45.0598066,48.3664829 45.0598066,49.4271514 C45.0598066,50.5231755 44.175887,51.3717102 43.1212103,51.3717102 C42.0665336,51.3717102 41.1926586,50.5231755 41.1926586,49.4271514 C41.1926586,48.3664829 42.0665336,47.4825925 43.1212103,47.4825925 Z M23.715159,52.043467 C24.5287667,52.043467 25.1917064,52.679868 25.1917064,53.4930472 C25.1917064,54.3062264 24.5287667,54.9779831 23.715159,54.9779831 C22.9417294,54.9779831 22.2787898,54.3062264 22.2787898,53.4930472 C22.2787898,52.679868 22.9417294,52.043467 23.715159,52.043467 Z M36.3009677,44.5480763 C37.1145754,44.5480763 37.7473814,45.1844774 37.7473814,45.9976566 C37.7473814,46.8108358 37.1145754,47.4825925 36.3009677,47.4825925 C35.4974045,47.4825925 34.8645984,46.8108358 34.8645984,45.9976566 C34.8645984,45.1844774 35.4974045,44.5480763 36.3009677,44.5480763 Z M40.5196745,30.6533192 C40.9415451,30.6533192 41.2629704,31.0068754 41.2629704,31.3957871 C41.2629704,31.7846989 40.9415451,32.1382551 40.5196745,32.1382551 C40.1279374,32.1382551 39.8165567,31.7846989 39.8165567,31.3957871 C39.8165567,31.0068754 40.1279374,30.6533192 40.5196745,30.6533192 Z M32.1927508,21.0365916 C32.6146215,21.0365916 32.9260022,21.3547921 32.9260022,21.7437039 C32.9260022,22.1679713 32.6146215,22.4861719 32.1927508,22.4861719 C31.8010137,22.4861719 31.4494548,22.1679713 31.4494548,21.7437039 C31.4494548,21.3547921 31.8010137,21.0365916 32.1927508,21.0365916 Z M27.230748,39.5982901 C27.6124405,39.5982901 27.9639994,39.9164906 27.9639994,40.3054024 C27.9639994,40.7296698 27.6124405,41.0478703 27.230748,41.0478703 C26.8390109,41.0478703 26.4974966,40.7296698 26.4974966,40.3054024 C26.4974966,39.9164906 26.8390109,39.5982901 27.230748,39.5982901 Z M18.4819536,15.839316 C20.1292582,15.839316 21.5053602,17.1828294 21.5053602,18.879899 C21.5053602,20.5769686 20.1292582,21.920482 18.4819536,21.920482 C16.7844264,21.920482 15.4585471,20.5769686 15.4585471,18.879899 C15.4585471,17.1828294 16.7844264,15.839316 18.4819536,15.839316 Z" id="Fill-46" fill="#FFFFFF" opacity="0.138648624"></path>
                </g>
                <g id="planet-a-copy" transform="translate(677.734413, 423.381050) rotate(40.000000) translate(-677.734413, -423.381050) translate(638.728680, 384.375318)">
                    <path d="M38.2644109,77.7073023 C59.2555611,77.7073023 76.3524256,60.513308 76.3524256,39.4029038 C76.3524256,18.2924996 59.2555611,1.0507441 38.2644109,1.0507441 C17.2596917,1.0507441 0.12212046,18.2924996 0.12212046,39.4029038 C0.12212046,60.513308 17.2596917,77.7073023 38.2644109,77.7073023" id="Fill-44" fill="#182349"></path>
                    <path d="M63.8961386,25.026814 C64.479603,25.026814 64.9002402,25.504425 64.9002402,26.029797 C64.9002402,26.5551691 64.479603,27.03278 63.8961386,27.03278 C63.3805189,27.03278 62.905606,26.5551691 62.905606,26.029797 C62.905606,25.504425 63.3805189,25.026814 63.8961386,25.026814 Z M47.9933409,14.0417621 C49.4180796,14.0417621 50.6121463,15.1880284 50.6121463,16.6686223 C50.6121463,18.1014552 49.4180796,19.2954826 47.9933409,19.2954826 C46.5686022,19.2954826 45.3881044,18.1014552 45.3881044,16.6686223 C45.3881044,15.1880284 46.5686022,14.0417621 47.9933409,14.0417621 Z M60.3003695,70.6864213 C54.072226,75.1282032 46.4736196,77.7073023 38.2644109,77.7073023 C17.2189849,77.7073023 0.12212046,60.5610691 0.12212046,39.4029038 C0.12212046,33.4805279 1.45187658,27.8924798 3.88071685,22.8775647 C10.0952914,18.4357829 17.6938978,15.8089226 25.9166755,15.8089226 C46.9485325,15.8089226 64.0046901,32.9551559 64.0046901,54.1610823 C64.0046901,60.0834581 62.674934,65.6715063 60.3003695,70.6864213 Z" id="Fill-45" fill="#1B2750"></path>
                    <path d="M13.6096469,36.5849991 C15.0750924,36.5849991 16.2284523,37.7790265 16.2284523,39.2118594 C16.2284523,40.6446923 15.0750924,41.8387196 13.6096469,41.8387196 C12.1849082,41.8387196 11.0044104,40.6446923 11.0044104,39.2118594 C11.0044104,37.7790265 12.1849082,36.5849991 13.6096469,36.5849991 Z M49.4723554,34.2447055 C50.8970941,34.2447055 52.0775919,35.4387328 52.0775919,36.8715657 C52.0775919,38.3043986 50.8970941,39.498426 49.4723554,39.498426 C47.9933409,39.498426 46.8535499,38.3043986 46.8535499,36.8715657 C46.8535499,35.4387328 47.9933409,34.2447055 49.4723554,34.2447055 Z M58.2514596,64.1431512 C59.6761983,64.1431512 60.870265,65.3371786 60.870265,66.7700115 C60.870265,68.2506054 59.6761983,69.3968717 58.2514596,69.3968717 C56.8267209,69.3968717 55.6462231,68.2506054 55.6462231,66.7700115 C55.6462231,65.3371786 56.8267209,64.1431512 58.2514596,64.1431512 Z M32.0362674,70.3043325 C33.1353516,70.3043325 34.0309016,71.1640323 34.0309016,72.2625375 C34.0309016,73.3610427 33.1353516,74.2685035 32.0362674,74.2685035 C30.991459,74.2685035 30.095909,73.3610427 30.095909,72.2625375 C30.095909,71.1640323 30.991459,70.3043325 32.0362674,70.3043325 Z M49.0381493,60.1789803 C50.1372334,60.1789803 50.9920767,61.03868 50.9920767,62.1371852 C50.9920767,63.2356904 50.1372334,64.1431512 49.0381493,64.1431512 C47.9526341,64.1431512 47.0977909,63.2356904 47.0977909,62.1371852 C47.0977909,61.03868 47.9526341,60.1789803 49.0381493,60.1789803 Z M54.7371041,41.4088698 C55.3069996,41.4088698 55.7412057,41.8864807 55.7412057,42.4118528 C55.7412057,42.9372248 55.3069996,43.4148358 54.7371041,43.4148358 C54.2079154,43.4148358 53.7872783,42.9372248 53.7872783,42.4118528 C53.7872783,41.8864807 54.2079154,41.4088698 54.7371041,41.4088698 Z M43.4884528,28.4178518 C44.0583483,28.4178518 44.4789854,28.8477017 44.4789854,29.3730737 C44.4789854,29.9462069 44.0583483,30.3760567 43.4884528,30.3760567 C42.9592641,30.3760567 42.4843512,29.9462069 42.4843512,29.3730737 C42.4843512,28.8477017 42.9592641,28.4178518 43.4884528,28.4178518 Z M36.7853964,53.4924269 C37.3010162,53.4924269 37.7759291,53.9222768 37.7759291,54.4476488 C37.7759291,55.020782 37.3010162,55.4506319 36.7853964,55.4506319 C36.2562078,55.4506319 35.7948638,55.020782 35.7948638,54.4476488 C35.7948638,53.9222768 36.2562078,53.4924269 36.7853964,53.4924269 Z M24.9668497,21.3969708 C27.1921558,21.3969708 29.0511006,23.2118924 29.0511006,25.504425 C29.0511006,27.7969576 27.1921558,29.6118792 24.9668497,29.6118792 C22.6736988,29.6118792 20.8825987,27.7969576 20.8825987,25.504425 C20.8825987,23.2118924 22.6736988,21.3969708 24.9668497,21.3969708 Z" id="Fill-46" fill="#FFFFFF" opacity="0.138648624"></path>
                </g>
                <g id="planet-a" transform="translate(102.244534, 278.634293) rotate(40.000000) translate(-102.244534, -278.634293) translate(37.234981, 212.442748)">
                    <path d="M64.6022522,130.183986 C100.041856,130.183986 128.906693,101.155165 128.906693,65.5142225 C128.906693,29.8732804 100.041856,0.763823085 64.6022522,0.763823085 C29.1397393,0.763823085 0.206177401,29.8732804 0.206177401,65.5142225 C0.206177401,101.155165 29.1397393,130.183986 64.6022522,130.183986" id="Fill-44" fill="#C5CBE4"></path>
                    <path d="M64.6022522,130.183986 C100.041856,130.183986 128.906693,101.155165 128.906693,65.5142225 C128.906693,29.8732804 100.041856,0.763823085 64.6022522,0.763823085 C29.1397393,0.763823085 0.206177401,29.8732804 0.206177401,65.5142225 C0.206177401,101.155165 29.1397393,130.183986 64.6022522,130.183986" id="Fill-44-Copy" fill="#172249" opacity="0.14"></path>
                    <path d="M107.876598,41.2429022 C108.861667,41.2429022 109.571834,42.0492583 109.571834,42.9362501 C109.571834,43.8232419 108.861667,44.6295981 107.876598,44.6295981 C107.006071,44.6295981 106.20427,43.8232419 106.20427,42.9362501 C106.20427,42.0492583 107.006071,41.2429022 107.876598,41.2429022 Z M81.0277184,22.6967106 C83.4331214,22.6967106 85.4490782,24.6319653 85.4490782,27.1316694 C85.4490782,29.5507379 83.4331214,31.5666283 81.0277184,31.5666283 C78.6223154,31.5666283 76.6292672,29.5507379 76.6292672,27.1316694 C76.6292672,24.6319653 78.6223154,22.6967106 81.0277184,22.6967106 Z M101.805819,118.330551 C91.2907712,125.829663 78.4619552,130.183986 64.6022522,130.183986 C29.0710135,130.183986 0.206177401,101.2358 0.206177401,65.5142225 C0.206177401,55.5154062 2.45122021,46.0810391 6.55185962,37.6142995 C17.0439984,30.1151872 29.8728145,25.6802284 43.7554261,25.6802284 C79.2637562,25.6802284 108.059866,54.6284144 108.059866,90.4306278 C108.059866,100.429444 105.814824,109.863811 101.805819,118.330551 Z" id="Fill-45" fill="#C5CBE4"></path>
                    <path d="M22.9773259,60.7567212 C25.4514547,60.7567212 27.3986857,62.7726116 27.3986857,65.1916801 C27.3986857,67.6107485 25.4514547,69.6266389 22.9773259,69.6266389 C20.5719229,69.6266389 18.5788746,67.6107485 18.5788746,65.1916801 C18.5788746,62.7726116 20.5719229,60.7567212 22.9773259,60.7567212 Z M83.5247558,56.805576 C85.9301588,56.805576 87.923207,58.8214664 87.923207,61.2405349 C87.923207,63.6596034 85.9301588,65.6754938 83.5247558,65.6754938 C81.0277184,65.6754938 79.103396,63.6596034 79.103396,61.2405349 C79.103396,58.8214664 81.0277184,56.805576 83.5247558,56.805576 Z M98.3466201,107.283471 C100.752023,107.283471 102.76798,109.299362 102.76798,111.71843 C102.76798,114.218134 100.752023,116.153389 98.3466201,116.153389 C95.941217,116.153389 93.9481688,114.218134 93.9481688,111.71843 C93.9481688,109.299362 95.941217,107.283471 98.3466201,107.283471 Z M54.0872047,117.685466 C55.9428013,117.685466 57.4547689,119.136907 57.4547689,120.991526 C57.4547689,122.846145 55.9428013,124.378222 54.0872047,124.378222 C52.3232425,124.378222 50.8112749,122.846145 50.8112749,120.991526 C50.8112749,119.136907 52.3232425,117.685466 54.0872047,117.685466 Z M82.7916806,100.590715 C84.6472772,100.590715 86.090519,102.042156 86.090519,103.896776 C86.090519,105.751395 84.6472772,107.283471 82.7916806,107.283471 C80.9589926,107.283471 79.5157508,105.751395 79.5157508,103.896776 C79.5157508,102.042156 80.9589926,100.590715 82.7916806,100.590715 Z M92.4132926,68.9009184 C93.3754538,68.9009184 94.108529,69.7072745 94.108529,70.5942663 C94.108529,71.4812581 93.3754538,72.2876143 92.4132926,72.2876143 C91.5198572,72.2876143 90.8096906,71.4812581 90.8096906,70.5942663 C90.8096906,69.7072745 91.5198572,68.9009184 92.4132926,68.9009184 Z M73.4220632,46.9680309 C74.3842244,46.9680309 75.094391,47.6937515 75.094391,48.5807432 C75.094391,49.5483706 74.3842244,50.2740912 73.4220632,50.2740912 C72.5286278,50.2740912 71.7268268,49.5483706 71.7268268,48.5807432 C71.7268268,47.6937515 72.5286278,46.9680309 73.4220632,46.9680309 Z M62.1052148,89.3017292 C62.9757416,89.3017292 63.7775426,90.0274497 63.7775426,90.9144415 C63.7775426,91.8820689 62.9757416,92.6077894 62.1052148,92.6077894 C61.2117794,92.6077894 60.432887,91.8820689 60.432887,90.9144415 C60.432887,90.0274497 61.2117794,89.3017292 62.1052148,89.3017292 Z M42.1518241,35.1145954 C45.9088345,35.1145954 49.0473127,38.1787488 49.0473127,42.0492583 C49.0473127,45.9197679 45.9088345,48.9839213 42.1518241,48.9839213 C38.2802707,48.9839213 35.2563355,45.9197679 35.2563355,42.0492583 C35.2563355,38.1787488 38.2802707,35.1145954 42.1518241,35.1145954 Z" id="Fill-46" fill="#182349" opacity="0.138648624"></path>
                </g>
            </g>
        </g>
    </g>
</svg>