<svg width="827" height="941" xmlns="http://www.w3.org/2000/svg" xmlns:xlink="http://www.w3.org/1999/xlink"><defs><linearGradient x1="9.13%" y1="19.072%" x2="88.302%" y2="87.109%" id="b"><stop stop-color="#2F325E" offset="0%"/><stop stop-color="#1F2E61" offset="100%"/></linearGradient><path d="M58.793 362.408C17.16 531.783 248.132 645.515 85.673 745.432c-162.458 99.917-77.222 359.2 119.884 359.2 123.341 0 136.56-80.741 382.357-99.624 163.865-12.589 258.977 3.32 285.336 47.726C934.597 649.712 944.628 348.801 903.344 150c-41.285-198.8-114.037-199.915-218.256-3.344-204.243-12.875-332.246-12.875-384.008 0-77.644 19.312-200.656 46.376-242.287 215.752z" id="a"/></defs><g fill="none" fill-rule="evenodd"><path d="M59.793 197.408C18.16 366.783 249.132 480.515 86.673 580.432c-162.458 99.917-77.222 359.2 119.884 359.2 123.341 0 136.56-80.741 382.357-99.624 163.865-12.589 258.977 3.32 285.336 47.726C935.597 484.712 945.628 183.801 904.344-15c-41.285-198.8-114.037-199.915-218.256-3.344-204.243-12.875-332.246-12.875-384.008 0C224.436.968 101.424 28.032 59.793 197.408z" stroke-opacity=".2" stroke="#2E335B"/><g transform="translate(41 -195)"><mask id="c" fill="#fff"><use xlink:href="#a"/></mask><use fill="url(#b)" fill-rule="nonzero" xlink:href="#a"/><g fill="#FFF" opacity=".365" mask="url(#c)"><g transform="translate(135 235)"><path d="M7.859 263.796L12 265.5l-4.141 1.704L5.999 271l-1.858-3.796L0 265.5l4.141-1.704L6 260l1.859 3.796M287.859 263.796L292 265.5l-4.141 1.704-1.86 3.796-1.858-3.796L280 265.5l4.141-1.704L286 260l1.859 3.796M167.859 173.796L172 175.5l-4.141 1.704-1.86 3.796-1.858-3.796L160 175.5l4.141-1.704L166 170l1.859 3.796M399.859 61.796L404 63.5l-4.141 1.704-1.86 3.796-1.858-3.796L392 63.5l4.141-1.704L398 58l1.859 3.796"/><circle cx="16.5" cy="335.5" r="2.5"/><circle cx="152.5" cy="386.5" r="2.5"/><circle cx="332.5" cy="162.5" r="2.5"/><circle cx="272" cy="132" r="2"/><circle cx="182.5" cy="1.5" r="1.5"/><circle cx="120.5" cy="17.5" r="1.5"/><circle cx="1.5" cy="153.5" r="1.5"/></g><g transform="translate(573 221)"><path d="M7.859 263.796L12 265.5l-4.141 1.704L5.999 271l-1.858-3.796L0 265.5l4.141-1.704L6 260l1.859 3.796M167.859 173.796L172 175.5l-4.141 1.704-1.86 3.796-1.858-3.796L160 175.5l4.141-1.704L166 170l1.859 3.796"/><circle cx="16.5" cy="335.5" r="2.5"/><circle cx="152.5" cy="386.5" r="2.5"/><circle cx="182.5" cy="1.5" r="1.5"/><circle cx="120.5" cy="17.5" r="1.5"/><circle cx="1.5" cy="153.5" r="1.5"/></g><g transform="translate(75 603)"><path d="M7.859 345.796L12 347.5l-4.141 1.704L5.999 353l-1.858-3.796L0 347.5l4.141-1.704L6 342l1.859 3.796M287.859 345.796L292 347.5l-4.141 1.704-1.86 3.796-1.858-3.796L280 347.5l4.141-1.704L286 342l1.859 3.796M167.859 255.796L172 257.5l-4.141 1.704-1.86 3.796-1.858-3.796L160 257.5l4.141-1.704L166 252l1.859 3.796M399.859 143.796L404 145.5l-4.141 1.704-1.86 3.796-1.858-3.796L392 145.5l4.141-1.704L398 140l1.859 3.796M399.859 3.796L404 5.5l-4.141 1.704-1.86 3.796-1.858-3.796L392 5.5l4.141-1.704L398 0l1.859 3.796"/><circle cx="16.5" cy="417.5" r="2.5"/><circle cx="152.5" cy="468.5" r="2.5"/><circle cx="332.5" cy="244.5" r="2.5"/><circle cx="272" cy="214" r="2"/><circle cx="182.5" cy="83.5" r="1.5"/><circle cx="120.5" cy="99.5" r="1.5"/><circle cx="1.5" cy="235.5" r="1.5"/></g><g transform="translate(515 575)"><path d="M7.859 345.796L12 347.5l-4.141 1.704L5.999 353l-1.858-3.796L0 347.5l4.141-1.704L6 342l1.859 3.796M167.859 255.796L172 257.5l-4.141 1.704-1.86 3.796-1.858-3.796L160 257.5l4.141-1.704L166 252l1.859 3.796"/><circle cx="16.5" cy="417.5" r="2.5"/><circle cx="152.5" cy="468.5" r="2.5"/><circle cx="272" cy="214" r="2"/><circle cx="182.5" cy="83.5" r="1.5"/><circle cx="120.5" cy="99.5" r="1.5"/><circle cx="1.5" cy="235.5" r="1.5"/></g></g><path d="M-.329 952.766c72.989-35.769 167.377-53.653 283.165-53.653 173.682 0 193.714 67.392 342.21 0C724.044 854.185 825.362 849.69 929 885.63l-54.06 225.543L-5 1103.039l4.671-150.273z" fill-opacity=".5" fill="#162042" fill-rule="nonzero" mask="url(#c)"/><path d="M-10.329 902.766c72.989-35.769 167.377-53.653 283.165-53.653 173.682 0 174.225 29.314 342.21 0C727.036 829.571 828.354 825.076 919 835.63l-47.855 329.003-898.235 26.68 16.761-288.546z" fill-opacity=".5" fill="#162042" fill-rule="nonzero" mask="url(#c)"/></g></g></svg>