<svg xmlns="http://www.w3.org/2000/svg" width="190" height="171" viewBox="0 0 190 171">
  <g fill="none" fill-rule="evenodd" transform="translate(9 -497)">
    <path fill="#232C3D" stroke="#232C3D" stroke-width="18" d="M172,582.4 C172,570.6 157.8,560.1 136,553.8 C141.4,531.7 139.5,514.2 129.2,508.3 C118.9,502.4 102.8,509.5 86.4,525.2 C70,509.5 53.8,502.4 43.6,508.3 C33.4,514.2 31.4,531.8 36.8,553.8 C15,560.2 0.8,570.6 0.8,582.4 C0.8,594.2 15,604.7 36.8,611 C31.4,633.1 33.3,650.6 43.6,656.5 C53.9,662.4 70,655.3 86.4,639.6 C102.8,655.3 119,662.4 129.2,656.5 C139.4,650.6 141.4,633 136,611 C157.8,604.7 172,594.2 172,582.4 Z"/>
    <g stroke="#FFF" stroke-width="6" transform="translate(0 506)">
      <path d="M86.4 19.2C70 3.5 53.8-3.6 43.6 2.3 33.4 8.2 31.4 25.8 36.8 47.8 45.6 45.2 55.7 43.3 66.6 42.3 73 33.3 79.7 25.6 86.4 19.2zM86.4 133.7C102.8 149.4 119 156.5 129.2 150.6 139.4 144.7 141.4 127.1 136 105.1 127.2 107.7 117.1 109.6 106.2 110.6 99.8 119.5 93.1 127.3 86.4 133.7z"/>
      <path d="M66.7 110.6C55.8 109.5 45.7 107.6 36.9 105.1 31.5 127.2 33.4 144.7 43.7 150.6 54 156.5 70.1 149.4 86.5 133.7 79.7 127.3 73 119.5 66.7 110.6zM106.1 42.3C117 43.4 127.1 45.3 135.9 47.8 141.3 25.7 139.4 8.2 129.1 2.3 118.8-3.6 102.7 3.5 86.3 19.2 93.1 25.6 99.8 33.3 106.1 42.3z"/>
      <path d="M106.1 42.3C99.7 33.4 93 25.6 86.4 19.2 79.7 25.6 73 33.4 66.7 42.3M66.7 110.6C73.1 119.5 79.8 127.3 86.4 133.7 93.1 127.3 99.8 119.5 106.1 110.6M172 76.4C172 64.6 157.8 54.1 136 47.8 133.8 56.8 130.4 66.4 125.9 76.4 130.4 86.4 133.8 96.1 136 105 157.8 98.7 172 88.2 172 76.4zM36.8 47.8C15 54.2.8 64.6.8 76.4.8 88.2 15 98.7 36.8 105 39 96 42.4 86.4 46.9 76.4 42.4 66.5 39 56.8 36.8 47.8z"/>
      <path d="M66.7 42.3C55.8 43.4 45.7 45.3 36.9 47.8 39.1 56.8 42.5 66.4 47 76.4M106.1 110.6C117 109.5 127.1 107.6 135.9 105.1 133.7 96.1 130.3 86.5 125.8 76.5M125.9 76.4C130.4 66.4 133.8 56.7 136 47.8 127.2 45.2 117.1 43.3 106.2 42.3M46.9 76.4C42.4 86.4 39 96.1 36.8 105 45.6 107.6 55.7 109.5 66.6 110.5"/>
    </g>
    <path fill="#232C3D" d="M49.8,604.8 C52.7,610.4 56.6,616.5 61.3,623.2 C70,635.6 78.8,645.7 78.9,645.8 L81.1,648.4 C82.4,649.9 84.4,650.8 86.4,650.8 C88.4,650.8 90.3,649.9 91.7,648.4 L94,645.8 C94.1,645.7 102.9,635.6 111.6,623.2 C116.3,616.5 120.1,610.5 123,605"/>
    <path fill="#FB8E82" stroke="#FFF" stroke-width="6" d="M120.3,581.6 C120.3,600.3 86.4,639.2 86.4,639.2 C86.4,639.2 52.5,600.3 52.5,581.6 C52.5,562.9 67.7,547.7 86.4,547.7 C105.1,547.7 120.3,562.9 120.3,581.6 Z"/>
    <circle cx="86.4" cy="581.9" r="12.4" fill="#232C3D" stroke="#FFF" stroke-width="6"/>
  </g>
</svg>
