<svg width="145" height="129" viewBox="0 0 145 129" xmlns="http://www.w3.org/2000/svg" xmlns:xlink="http://www.w3.org/1999/xlink"><defs><linearGradient x1="0%" y1="50%" y2="50%" id="a"><stop stop-color="#FA709A" offset="0%"/><stop stop-color="#FEE140" offset="100%"/></linearGradient><ellipse id="b" cx="13.57" cy="13.559" rx="13.57" ry="13.559"/></defs><g fill="none" fill-rule="evenodd"><path d="M145 64.515c0-9.596-12.03-18.69-30.472-24.33 4.256-18.778 2.365-33.719-5.97-38.502C106.637.561 104.39.03 101.938.03v6.584c1.359 0 2.453.266 3.369.768 4.02 2.303 5.763 11.072 4.404 22.35-.326 2.776-.858 5.7-1.508 8.682-5.793-1.418-12.118-2.51-18.768-3.219-3.99-5.462-8.127-10.423-12.295-14.763 9.635-8.946 18.68-13.848 24.827-13.848V0c-8.128 0-18.768 5.787-29.526 15.826C61.683 5.846 51.043.118 42.915.118v6.584c6.118 0 15.191 4.872 24.827 13.76a139.488 139.488 0 0 0-12.207 14.733c-6.68.709-13.004 1.801-18.797 3.248a88.996 88.996 0 0 1-1.537-8.562C33.81 18.6 35.526 9.832 39.516 7.5c.887-.532 2.04-.768 3.399-.768V.148c-2.483 0-4.73.531-6.68 1.653-8.305 4.783-10.167 19.694-5.881 38.414C11.97 45.884 0 54.948 0 64.515c0 9.596 12.03 18.69 30.472 24.33-4.256 18.778-2.365 33.718 5.97 38.502 1.921 1.122 4.167 1.653 6.65 1.653 8.128 0 18.768-5.787 29.526-15.826 10.758 9.98 21.399 15.708 29.526 15.708 2.483 0 4.73-.532 6.68-1.654 8.305-4.783 10.167-19.694 5.881-38.413C133.03 83.175 145 74.08 145 64.515zM106.519 44.82c-1.094 3.809-2.454 7.736-3.99 11.663a139.69 139.69 0 0 0-3.872-7.087c-1.36-2.362-2.808-4.665-4.256-6.909 4.197.62 8.246 1.388 12.118 2.333zM92.982 76.266c-2.305 3.986-4.67 7.766-7.123 11.28-4.404.383-8.867.59-13.359.59-4.463 0-8.926-.207-13.3-.561a162.74 162.74 0 0 1-7.153-11.22A153.744 153.744 0 0 1 45.9 64.603a153.914 153.914 0 0 1 6.118-11.78c2.305-3.987 4.67-7.766 7.123-11.28 4.404-.383 8.867-.59 13.359-.59 4.463 0 8.926.207 13.3.56a162.74 162.74 0 0 1 7.153 11.22A153.744 153.744 0 0 1 99.1 64.486a165.26 165.26 0 0 1-6.118 11.781zm9.547-3.838a126.452 126.452 0 0 1 4.078 11.751c-3.872.945-7.95 1.742-12.177 2.362 1.449-2.273 2.897-4.606 4.256-6.997a167.66 167.66 0 0 0 3.843-7.116zm-29.97 31.504c-2.749-2.834-5.497-5.994-8.216-9.448 2.66.118 5.379.207 8.127.207 2.779 0 5.527-.06 8.217-.207a115.28 115.28 0 0 1-8.128 9.448zm-21.99-17.39c-4.196-.62-8.245-1.388-12.117-2.333 1.093-3.81 2.453-7.736 3.99-11.663a139.69 139.69 0 0 0 3.872 7.086 195.52 195.52 0 0 0 4.256 6.91zm21.842-61.445c2.749 2.835 5.498 5.994 8.217 9.449-2.66-.118-5.38-.207-8.128-.207-2.778 0-5.527.059-8.216.207a115.28 115.28 0 0 1 8.127-9.449zm-21.87 17.391c-1.45 2.274-2.897 4.606-4.257 6.998a166.742 166.742 0 0 0-3.842 7.086 126.452 126.452 0 0 1-4.079-11.751c3.872-.916 7.95-1.713 12.177-2.333zM23.791 79.455C13.33 74.997 6.562 69.15 6.562 64.515c0-4.636 6.768-10.512 17.23-14.94 2.542-1.093 5.32-2.067 8.187-2.983 1.685 5.787 3.902 11.81 6.65 17.982-2.719 6.141-4.906 12.135-6.561 17.893-2.926-.916-5.704-1.92-8.276-3.012zm15.901 42.193c-4.02-2.303-5.763-11.072-4.404-22.351.326-2.776.858-5.699 1.508-8.681 5.793 1.417 12.118 2.51 18.768 3.218 3.99 5.463 8.127 10.423 12.295 14.763-9.635 8.947-18.68 13.848-24.827 13.848-1.33-.03-2.453-.295-3.34-.797zM109.8 99.149c1.39 11.279-.325 20.048-4.315 22.38-.887.532-2.04.769-3.399.769-6.118 0-15.191-4.872-24.827-13.76a139.488 139.488 0 0 0 12.207-14.733c6.68-.709 13.004-1.801 18.797-3.248.68 2.982 1.212 5.846 1.537 8.592zm11.38-19.694c-2.543 1.092-5.32 2.067-8.188 2.982-1.684-5.787-3.901-11.81-6.65-17.981 2.72-6.142 4.906-12.136 6.562-17.893a93.801 93.801 0 0 1 8.305 3.012c10.462 4.458 17.23 10.304 17.23 14.94-.029 4.635-6.797 10.511-17.26 14.94z" fill="url(#a)" fill-rule="nonzero"/><use fill="#FC997A" fill-rule="nonzero" xlink:href="#b" transform="translate(58.93 51.135)"/></g></svg>
