<svg width="687px" height="745px" viewBox="0 0 687 745" version="1.1" xmlns="http://www.w3.org/2000/svg" xmlns:xlink="http://www.w3.org/1999/xlink">
    <defs>
        <linearGradient x1="9.12985159%" y1="19.0723277%" x2="88.3020127%" y2="87.1090522%" id="linearGradient-1">
            <stop stop-color="#2F325E" offset="0%"></stop>
            <stop stop-color="#1F2E61" offset="100%"></stop>
        </linearGradient>
        <path d="M43.5109779,168.770255 C12.7006714,294.877918 183.636771,379.556448 63.4051486,453.949237 C-56.8264739,528.342025 6.25419712,721.389792 152.127661,721.389792 C243.410169,721.389792 253.193062,661.274073 435.101676,647.21497 C556.374085,637.842234 630.465699,648.033653 657.376517,677.789227 L657.376517,99.9987358 C651.178387,59.4501371 602.131955,28.9422898 510.237221,8.47519359 C372.395121,-22.2254507 74.3212844,42.6625919 43.5109779,168.770255 Z" id="path-2"></path>
    </defs>
    <g id="Page-1" stroke="none" stroke-width="1" fill="none" fill-rule="evenodd">
        <g id="Tablet-Copy" transform="translate(-81.000000, -456.000000)">
            <g id="illustration-bg" transform="translate(82.000000, 456.000000)">
                <g id="bg">
                    <path d="M43.5109779,191.106604 C12.7006714,317.214268 183.636771,401.892798 63.4051486,476.285586 C-56.8264739,550.678375 6.25419712,743.726142 152.127661,743.726142 C243.410169,743.726142 289.792973,632.919914 432.585443,634.229508 C527.780423,635.102571 611.930924,647.836052 685.036946,672.429952 C685.036946,447.77283 685.036946,259.638881 685.036946,108.028103 C685.036946,32.2590769 295.149429,43.4060906 237.687263,57.7846703 C180.225096,72.16325 74.3212844,64.9989412 43.5109779,191.106604 Z" id="Path-2" stroke-opacity="0.2" stroke="#2E335B" fill-rule="nonzero"></path>
                    <g id="Group-5" transform="translate(29.603080, 0.000000)">
                        <mask id="mask-3" fill="white">
                            <use xlink:href="#path-2"></use>
                        </mask>
                        <use id="Path-2-Copy" fill="url(#linearGradient-1)" fill-rule="nonzero" xlink:href="#path-2"></use>
                        <g id="stars" opacity="0.364606585" mask="url(#mask-3)">
                            <g transform="translate(55.505775, 63.485892)">
                                <g id="stars" transform="translate(44.404620, 10.423630)">
                                    <polyline id="Fill-175" fill="#FFFFFF" points="5.8162757 196.408119 8.880924 197.676691 5.8162757 198.945263 4.44014063 201.771689 3.06464831 198.945263 0 197.676691 3.06464831 196.408119 4.44014063 193.581694 5.8162757 196.408119"></polyline>
                                    <polyline id="Fill-175-Copy-2" fill="#FFFFFF" points="213.037836 196.408119 216.102484 197.676691 213.037836 198.945263 211.661701 201.771689 210.286208 198.945263 207.22156 197.676691 210.286208 196.408119 211.661701 193.581694 213.037836 196.408119"></polyline>
                                    <polyline id="Fill-175-Copy-3" fill="#FFFFFF" points="124.228596 129.399071 127.293244 130.667643 124.228596 131.936215 122.852461 134.762641 121.476968 131.936215 118.41232 130.667643 121.476968 129.399071 122.852461 126.572646 124.228596 129.399071"></polyline>
                                    <polyline id="Fill-175-Copy" fill="#FFFFFF" points="295.92646 46.0100341 298.991108 47.278606 295.92646 48.5471778 294.550325 51.3736034 293.174832 48.5471778 290.110184 47.278606 293.174832 46.0100341 294.550325 43.1836086 295.92646 46.0100341"></polyline>
                                    <ellipse id="Oval" fill="#FFFFFF" cx="12.2112705" cy="249.79484" rx="1.8501925" ry="1.86136244"></ellipse>
                                    <ellipse id="Oval-Copy" fill="#FFFFFF" cx="112.861743" cy="287.766633" rx="1.8501925" ry="1.86136244"></ellipse>
                                    <ellipse id="Oval-Copy-2" fill="#FFFFFF" cx="246.075603" cy="120.988559" rx="1.8501925" ry="1.86136244"></ellipse>
                                    <ellipse id="Oval-Copy-6" fill="#FFFFFF" cx="201.300944" cy="98.2799369" rx="1.480154" ry="1.48908995"></ellipse>
                                    <ellipse id="Oval-Copy-3" fill="#FFFFFF" cx="135.064053" cy="1.11681746" rx="1.1101155" ry="1.11681746"></ellipse>
                                    <ellipse id="Oval-Copy-4" fill="#FFFFFF" cx="89.1792785" cy="13.0295371" rx="1.1101155" ry="1.11681746"></ellipse>
                                    <ellipse id="Oval-Copy-5" fill="#FFFFFF" cx="1.1101155" cy="114.287654" rx="1.1101155" ry="1.11681746"></ellipse>
                                </g>
                                <g id="stars-copy-2" transform="translate(368.558346, 0.000000)">
                                    <polyline id="Fill-175" fill="#FFFFFF" points="5.8162757 196.408119 8.880924 197.676691 5.8162757 198.945263 4.44014063 201.771689 3.06464831 198.945263 0 197.676691 3.06464831 196.408119 4.44014063 193.581694 5.8162757 196.408119"></polyline>
                                    <polyline id="Fill-175-Copy-2" fill="#FFFFFF" points="213.037836 196.408119 216.102484 197.676691 213.037836 198.945263 211.661701 201.771689 210.286208 198.945263 207.22156 197.676691 210.286208 196.408119 211.661701 193.581694 213.037836 196.408119"></polyline>
                                    <polyline id="Fill-175-Copy-3" fill="#FFFFFF" points="124.228596 129.399071 127.293244 130.667643 124.228596 131.936215 122.852461 134.762641 121.476968 131.936215 118.41232 130.667643 121.476968 129.399071 122.852461 126.572646 124.228596 129.399071"></polyline>
                                    <ellipse id="Oval" fill="#FFFFFF" cx="12.2112705" cy="249.79484" rx="1.8501925" ry="1.86136244"></ellipse>
                                    <ellipse id="Oval-Copy" fill="#FFFFFF" cx="112.861743" cy="287.766633" rx="1.8501925" ry="1.86136244"></ellipse>
                                    <ellipse id="Oval-Copy-6" fill="#FFFFFF" cx="201.300944" cy="98.2799369" rx="1.480154" ry="1.48908995"></ellipse>
                                    <ellipse id="Oval-Copy-3" fill="#FFFFFF" cx="135.064053" cy="1.11681746" rx="1.1101155" ry="1.11681746"></ellipse>
                                    <ellipse id="Oval-Copy-4" fill="#FFFFFF" cx="89.1792785" cy="13.0295371" rx="1.1101155" ry="1.11681746"></ellipse>
                                    <ellipse id="Oval-Copy-5" fill="#FFFFFF" cx="1.1101155" cy="114.287654" rx="1.1101155" ry="1.11681746"></ellipse>
                                </g>
                                <g id="stars-copy" transform="translate(0.000000, 284.416181)">
                                    <polyline id="Fill-175" fill="#FFFFFF" points="5.8162757 257.460807 8.880924 258.729379 5.8162757 259.997951 4.44014063 262.824377 3.06464831 259.997951 0 258.729379 3.06464831 257.460807 4.44014063 254.634382 5.8162757 257.460807"></polyline>
                                    <polyline id="Fill-175-Copy-2" fill="#FFFFFF" points="213.037836 257.460807 216.102484 258.729379 213.037836 259.997951 211.661701 262.824377 210.286208 259.997951 207.22156 258.729379 210.286208 257.460807 211.661701 254.634382 213.037836 257.460807"></polyline>
                                    <polyline id="Fill-175-Copy-3" fill="#FFFFFF" points="124.228596 190.45176 127.293244 191.720331 124.228596 192.988903 122.852461 195.815329 121.476968 192.988903 118.41232 191.720331 121.476968 190.45176 122.852461 187.625334 124.228596 190.45176"></polyline>
                                    <polyline id="Fill-175-Copy" fill="#FFFFFF" points="295.92646 107.062722 298.991108 108.331294 295.92646 109.599866 294.550325 112.426291 293.174832 109.599866 290.110184 108.331294 293.174832 107.062722 294.550325 104.236297 295.92646 107.062722"></polyline>
                                    <polyline id="Fill-175-Copy-4" fill="#FFFFFF" points="295.92646 2.82642551 298.991108 4.09499737 295.92646 5.36356922 294.550325 8.18999474 293.174832 5.36356922 290.110184 4.09499737 293.174832 2.82642551 294.550325 0 295.92646 2.82642551"></polyline>
                                    <ellipse id="Oval" fill="#FFFFFF" cx="12.2112705" cy="310.847528" rx="1.8501925" ry="1.86136244"></ellipse>
                                    <ellipse id="Oval-Copy" fill="#FFFFFF" cx="112.861743" cy="348.819321" rx="1.8501925" ry="1.86136244"></ellipse>
                                    <ellipse id="Oval-Copy-2" fill="#FFFFFF" cx="246.075603" cy="182.041247" rx="1.8501925" ry="1.86136244"></ellipse>
                                    <ellipse id="Oval-Copy-6" fill="#FFFFFF" cx="201.300944" cy="159.332625" rx="1.480154" ry="1.48908995"></ellipse>
                                    <ellipse id="Oval-Copy-3" fill="#FFFFFF" cx="135.064053" cy="62.1695055" rx="1.1101155" ry="1.11681746"></ellipse>
                                    <ellipse id="Oval-Copy-4" fill="#FFFFFF" cx="89.1792785" cy="74.0822251" rx="1.1101155" ry="1.11681746"></ellipse>
                                    <ellipse id="Oval-Copy-5" fill="#FFFFFF" cx="1.1101155" cy="175.340342" rx="1.1101155" ry="1.11681746"></ellipse>
                                </g>
                                <g id="stars-copy-3" transform="translate(325.633880, 263.568922)">
                                    <polyline id="Fill-175" fill="#FFFFFF" points="5.8162757 257.460807 8.880924 258.729379 5.8162757 259.997951 4.44014063 262.824377 3.06464831 259.997951 0 258.729379 3.06464831 257.460807 4.44014063 254.634382 5.8162757 257.460807"></polyline>
                                    <polyline id="Fill-175-Copy-2" fill="#FFFFFF" points="213.037836 257.460807 216.102484 258.729379 213.037836 259.997951 211.661701 262.824377 210.286208 259.997951 207.22156 258.729379 210.286208 257.460807 211.661701 254.634382 213.037836 257.460807"></polyline>
                                    <polyline id="Fill-175-Copy-3" fill="#FFFFFF" points="124.228596 190.45176 127.293244 191.720331 124.228596 192.988903 122.852461 195.815329 121.476968 192.988903 118.41232 191.720331 121.476968 190.45176 122.852461 187.625334 124.228596 190.45176"></polyline>
                                    <ellipse id="Oval" fill="#FFFFFF" cx="12.2112705" cy="310.847528" rx="1.8501925" ry="1.86136244"></ellipse>
                                    <ellipse id="Oval-Copy" fill="#FFFFFF" cx="112.861743" cy="348.819321" rx="1.8501925" ry="1.86136244"></ellipse>
                                    <ellipse id="Oval-Copy-2" fill="#FFFFFF" cx="246.075603" cy="182.041247" rx="1.8501925" ry="1.86136244"></ellipse>
                                    <ellipse id="Oval-Copy-6" fill="#FFFFFF" cx="201.300944" cy="159.332625" rx="1.480154" ry="1.48908995"></ellipse>
                                    <ellipse id="Oval-Copy-3" fill="#FFFFFF" cx="135.064053" cy="62.1695055" rx="1.1101155" ry="1.11681746"></ellipse>
                                    <ellipse id="Oval-Copy-4" fill="#FFFFFF" cx="89.1792785" cy="74.0822251" rx="1.1101155" ry="1.11681746"></ellipse>
                                    <ellipse id="Oval-Copy-5" fill="#FFFFFF" cx="1.1101155" cy="175.340342" rx="1.1101155" ry="1.11681746"></ellipse>
                                </g>
                            </g>
                        </g>
                        <path d="M-0.243406285,608.318477 C53.7737784,581.687311 123.628371,568.371729 209.320372,568.371729 C337.858374,568.371729 352.683345,618.548124 462.582352,568.371729 C535.848357,534.920799 610.831418,531.574224 687.531533,558.332005 L647.522566,726.259011 L-3.700385,720.203544 L-0.243406285,608.318477 Z" id="Path-3" fill-opacity="0.5" fill="#162042" fill-rule="nonzero" mask="url(#mask-3)"></path>
                        <path d="M-7.64417629,571.091228 C46.3730084,544.460063 116.227601,531.14448 201.919602,531.14448 C330.457604,531.14448 330.859746,552.969536 455.181582,531.14448 C538.062807,516.594442 613.045867,513.247868 680.130763,521.104756 L644.714032,766.062491 L-20.0485703,785.927189 L-7.64417629,571.091228 Z" id="Path-3" fill-opacity="0.5" fill="#162042" fill-rule="nonzero" mask="url(#mask-3)"></path>
                        <g id="planet-with-shadow" mask="url(#mask-3)">
                            <g transform="translate(466.988587, 135.706754)">
                                <path d="M41.1641251,83.1688198 C63.8008916,83.1688198 82.2523663,64.6088865 82.2523663,41.8354579 C82.2523663,19.0825829 63.8008916,0.5226496 41.1641251,0.5226496 C18.5507076,0.5226496 0.0992328598,19.0825829 0.0992328598,41.8354579 C0.0992328598,64.6088865 18.5507076,83.1688198 41.1641251,83.1688198" id="Fill-32" fill="#5F6B9B"></path>
                                <path d="M41.1641251,0.5226496 C63.8651011,0.5226496 82.2523663,19.020922 82.2523663,41.8354579 C82.2523663,64.6705474 63.8651011,83.1688198 41.1641251,83.1688198 C37.0372056,82.0383698 28.3339001,81.3600998 29.7231601,77.454909 C30.441139,75.5228672 35.916458,78.2359472 41.3450792,78.6675735 C48.5774035,79.2225217 56.200822,77.7221063 57.0413827,75.3789918 C58.284712,71.86432 49.5814065,74.2074345 39.5530505,73.67304 C27.662619,73.0153236 13.9743215,69.5006519 14.3187179,63.9511702 C14.5872304,59.7171212 26.6002436,65.1638347 38.3856051,66.2326238 C50.4394789,67.3219665 62.2890498,64.0128311 62.8786097,56.9834876 C63.4973558,49.8308223 51.8929484,51.6395422 38.4673262,51.3312377 C25.9231253,51.0229332 10.0108444,46.7272232 9.45630781,39.1223779 C8.88425956,30.9009236 21.6969729,34.3333808 33.8734285,34.0867371 C46.1316053,33.8400935 57.7360127,29.914349 55.5879132,21.7134483 C54.4029561,17.2327556 47.1297712,20.0691574 38.0995809,20.4802301 C28.9701578,20.9118565 18.1012411,18.9387074 17.3832621,15.1979457 C16.0348627,8.10694127 32.5191919,1.42700958 41.1641251,0.5226496" id="Fill-33" fill="#172249" opacity="0.2"></path>
                                <path d="M41.1641251,0.5226496 C42.5125246,0.5226496 43.8434123,0.584310508 45.1509512,0.707632324 C44.8415782,0.707632324 44.5322051,0.687078688 44.2286693,0.687078688 C21.5510423,0.687078688 3.14626538,19.2059047 3.14626538,42.0204406 C3.14626538,63.4989902 19.4496405,81.1545635 40.2651922,83.1688198 C17.996171,82.6755325 0.0992328598,64.3622429 0.0992328598,41.8354579 C0.0992328598,19.020922 18.4864981,0.5226496 41.1641251,0.5226496" id="Fill-34" fill="#FFFFFF" opacity="0.130066"></path>
                            </g>
                        </g>
                    </g>
                </g>
                <g id="planet-a" transform="translate(106.470735, 490.829230) rotate(40.000000) translate(-106.470735, -490.829230) translate(85.569470, 469.049370)">
                    <path d="M20.8701714,42.3981137 C32.3191626,42.3981137 41.6441328,33.016847 41.6441328,21.4987362 C41.6441328,9.98062541 32.3191626,0.573299632 20.8701714,0.573299632 C9.41377944,0.573299632 0.06660693,9.98062541 0.06660693,21.4987362 C0.06660693,33.016847 9.41377944,42.3981137 20.8701714,42.3981137" id="Fill-44" fill="#182349"></path>
                    <path d="M34.8502259,13.6549549 C35.1684591,13.6549549 35.3978829,13.9155456 35.3978829,14.2021954 C35.3978829,14.4888452 35.1684591,14.749436 34.8502259,14.749436 C34.5689967,14.749436 34.3099697,14.4888452 34.3099697,14.2021954 C34.3099697,13.9155456 34.5689967,13.6549549 34.8502259,13.6549549 Z M26.1765235,7.66136781 C26.9536044,7.66136781 27.6048721,8.28678559 27.6048721,9.09461688 C27.6048721,9.87638911 26.9536044,10.527866 26.1765235,10.527866 C25.3994427,10.527866 24.7555757,9.87638911 24.7555757,9.09461688 C24.7555757,8.28678559 25.3994427,7.66136781 26.1765235,7.66136781 Z M32.8890219,38.5674298 C29.4920685,40.9909237 25.3476373,42.3981137 20.8701714,42.3981137 C9.39157713,42.3981137 0.06660693,33.042906 0.06660693,21.4987362 C0.06660693,18.267411 0.79188239,15.2184993 2.11662022,12.4822965 C5.50617288,10.0588026 9.65060409,8.62555355 14.1354707,8.62555355 C25.6066642,8.62555355 34.9094321,17.9807612 34.9094321,29.5509901 C34.9094321,32.7823153 34.1841566,35.831227 32.8890219,38.5674298 Z" id="Fill-45" fill="#1B2750"></path>
                    <path d="M7.42297231,19.9612508 C8.22225547,19.9612508 8.85132092,20.6127277 8.85132092,21.3944999 C8.85132092,22.1762721 8.22225547,22.827749 7.42297231,22.827749 C6.64589146,22.827749 6.00202447,22.1762721 6.00202447,21.3944999 C6.00202447,20.6127277 6.64589146,19.9612508 7.42297231,19.9612508 Z M26.9832074,18.6843562 C27.7602883,18.6843562 28.4041553,19.335833 28.4041553,20.1176053 C28.4041553,20.8993775 27.7602883,21.5508543 26.9832074,21.5508543 C26.1765235,21.5508543 25.5548588,20.8993775 25.5548588,20.1176053 C25.5548588,19.335833 26.1765235,18.6843562 26.9832074,18.6843562 Z M31.7715056,34.9973366 C32.5485865,34.9973366 33.1998542,35.6488135 33.1998542,36.4305857 C33.1998542,37.238417 32.5485865,37.8638348 31.7715056,37.8638348 C30.9944248,37.8638348 30.3505578,37.238417 30.3505578,36.4305857 C30.3505578,35.6488135 30.9944248,34.9973366 31.7715056,34.9973366 Z M17.473218,38.3589572 C18.0726803,38.3589572 18.5611312,38.8280205 18.5611312,39.4273792 C18.5611312,40.0267379 18.0726803,40.5218603 17.473218,40.5218603 C16.9033587,40.5218603 16.4149079,40.0267379 16.4149079,39.4273792 C16.4149079,38.8280205 16.9033587,38.3589572 17.473218,38.3589572 Z M26.7463828,32.8344335 C27.3458452,32.8344335 27.8120937,33.3034968 27.8120937,33.9028555 C27.8120937,34.5022142 27.3458452,34.9973366 26.7463828,34.9973366 C26.1543212,34.9973366 25.6880727,34.5022142 25.6880727,33.9028555 C25.6880727,33.3034968 26.1543212,32.8344335 26.7463828,32.8344335 Z M29.8547062,22.5932173 C30.1655385,22.5932173 30.4023632,22.853808 30.4023632,23.1404579 C30.4023632,23.4271077 30.1655385,23.6876984 29.8547062,23.6876984 C29.5660762,23.6876984 29.3366523,23.4271077 29.3366523,23.1404579 C29.3366523,22.853808 29.5660762,22.5932173 29.8547062,22.5932173 Z M23.7194679,15.5051491 C24.0303002,15.5051491 24.2597241,15.7396808 24.2597241,16.0263306 C24.2597241,16.3390395 24.0303002,16.5735712 23.7194679,16.5735712 C23.4308378,16.5735712 23.1718109,16.3390395 23.1718109,16.0263306 C23.1718109,15.7396808 23.4308378,15.5051491 23.7194679,15.5051491 Z M20.0634875,29.1861631 C20.3447167,29.1861631 20.6037437,29.4206947 20.6037437,29.7073446 C20.6037437,30.0200534 20.3447167,30.2545851 20.0634875,30.2545851 C19.7748575,30.2545851 19.5232313,30.0200534 19.5232313,29.7073446 C19.5232313,29.4206947 19.7748575,29.1861631 20.0634875,29.1861631 Z M13.6174168,11.6744652 C14.8311431,11.6744652 15.8450486,12.66471 15.8450486,13.9155456 C15.8450486,15.1663812 14.8311431,16.156626 13.6174168,16.156626 C12.3666867,16.156626 11.389785,15.1663812 11.389785,13.9155456 C11.389785,12.66471 12.3666867,11.6744652 13.6174168,11.6744652 Z" id="Fill-46" fill="#FFFFFF" opacity="0.138648624"></path>
                </g>
                <g id="planet-a-copy" transform="translate(499.351538, 312.055605) rotate(40.000000) translate(-499.351538, -312.055605) translate(470.612298, 283.306190)">
                    <path d="M28.1930386,57.2746448 C43.6592197,57.2746448 56.2561092,44.6017056 56.2561092,29.0421524 C56.2561092,13.4825992 43.6592197,0.774457397 28.1930386,0.774457397 C12.71686,0.774457397 0.0899777827,13.4825992 0.0899777827,29.0421524 C0.0899777827,44.6017056 12.71686,57.2746448 28.1930386,57.2746448" id="Fill-44" fill="#182349"></path>
                    <path d="M47.0783754,18.4461671 C47.5082693,18.4461671 47.8181927,18.7981932 47.8181927,19.1854219 C47.8181927,19.5726506 47.5082693,19.9246767 47.0783754,19.9246767 C46.6984692,19.9246767 46.3485556,19.5726506 46.3485556,19.1854219 C46.3485556,18.7981932 46.6984692,18.4461671 47.0783754,18.4461671 Z M35.3612686,10.349567 C36.4110094,10.349567 37.2907922,11.1944297 37.2907922,12.2857105 C37.2907922,13.3417888 36.4110094,14.221854 35.3612686,14.221854 C34.3115278,14.221854 33.4417426,13.3417888 33.4417426,12.2857105 C33.4417426,11.1944297 34.3115278,10.349567 35.3612686,10.349567 Z M44.4290296,52.0998613 C39.8401627,55.3737039 34.2415451,57.2746448 28.1930386,57.2746448 C12.6868674,57.2746448 0.0899777827,44.6369082 0.0899777827,29.0421524 C0.0899777827,24.6770289 1.06973586,20.5583236 2.85929398,16.8620497 C7.43816337,13.5882071 13.036781,11.6520636 19.095285,11.6520636 C34.5914587,11.6520636 47.1583557,24.2898002 47.1583557,39.9197586 C47.1583557,44.2848821 46.1785976,48.4035873 44.4290296,52.0998613 Z" id="Fill-45" fill="#1B2750"></path>
                    <path d="M10.027524,26.9651985 C11.1072574,26.9651985 11.9570476,27.8452637 11.9570476,28.901342 C11.9570476,29.9574202 11.1072574,30.8374855 10.027524,30.8374855 C8.97778321,30.8374855 8.10799797,29.9574202 8.10799797,28.901342 C8.10799797,27.8452637 8.97778321,26.9651985 10.027524,26.9651985 Z M36.4509995,25.2402706 C37.5007403,25.2402706 38.3705255,26.1203359 38.3705255,27.1764141 C38.3705255,28.2324924 37.5007403,29.1125576 36.4509995,29.1125576 C35.3612686,29.1125576 34.521476,28.2324924 34.521476,27.1764141 C34.521476,26.1203359 35.3612686,25.2402706 36.4509995,25.2402706 Z M42.9194023,47.2771038 C43.9691431,47.2771038 44.8489259,48.1571691 44.8489259,49.2132473 C44.8489259,50.3045282 43.9691431,51.1493908 42.9194023,51.1493908 C41.8696615,51.1493908 40.9998763,50.3045282 40.9998763,49.2132473 C40.9998763,48.1571691 41.8696615,47.2771038 42.9194023,47.2771038 Z M23.6041717,51.8182404 C24.4139717,51.8182404 25.0738088,52.4518874 25.0738088,53.2615474 C25.0738088,54.0712074 24.4139717,54.7400569 23.6041717,54.7400569 C22.8343617,54.7400569 22.1745247,54.0712074 22.1745247,53.2615474 C22.1745247,52.4518874 22.8343617,51.8182404 23.6041717,51.8182404 Z M36.1310785,44.3552873 C36.9408786,44.3552873 37.570723,44.9889343 37.570723,45.7985943 C37.570723,46.6082543 36.9408786,47.2771038 36.1310785,47.2771038 C35.331276,47.2771038 34.7014315,46.6082543 34.7014315,45.7985943 C34.7014315,44.9889343 35.331276,44.3552873 36.1310785,44.3552873 Z M40.3300417,30.520662 C40.749938,30.520662 41.069859,30.8726881 41.069859,31.2599168 C41.069859,31.6471455 40.749938,31.9991715 40.3300417,31.9991715 C39.940138,31.9991715 39.6302145,31.6471455 39.6302145,31.2599168 C39.6302145,30.8726881 39.940138,30.520662 40.3300417,30.520662 Z M32.0420882,20.9455523 C32.4619845,20.9455523 32.771908,21.2623758 32.771908,21.6496045 C32.771908,22.0720358 32.4619845,22.3888593 32.0420882,22.3888593 C31.6521844,22.3888593 31.3022708,22.0720358 31.3022708,21.6496045 C31.3022708,21.2623758 31.6521844,20.9455523 32.0420882,20.9455523 Z M27.1033076,39.426922 C27.4832138,39.426922 27.8331274,39.7437455 27.8331274,40.1309742 C27.8331274,40.5534055 27.4832138,40.870229 27.1033076,40.870229 C26.7134039,40.870229 26.3734879,40.5534055 26.3734879,40.1309742 C26.3734879,39.7437455 26.7134039,39.426922 27.1033076,39.426922 Z M18.3954578,15.7707688 C20.0350529,15.7707688 21.4047147,17.108468 21.4047147,18.7981932 C21.4047147,20.4879184 20.0350529,21.8256176 18.3954578,21.8256176 C16.705875,21.8256176 15.3862008,20.4879184 15.3862008,18.7981932 C15.3862008,17.108468 16.705875,15.7707688 18.3954578,15.7707688 Z" id="Fill-46" fill="#FFFFFF" opacity="0.138648624"></path>
                </g>
                <g id="planet-a" transform="translate(75.333293, 205.369118) rotate(40.000000) translate(-75.333293, -205.369118) translate(27.434559, 156.582233)">
                    <path d="M47.5986366,95.9529073 C73.7103709,95.9529073 94.9778468,74.5570358 94.9778468,48.2876604 C94.9778468,22.0182849 73.7103709,0.5629805 47.5986366,0.5629805 C21.4700233,0.5629805 0.151910542,22.0182849 0.151910542,48.2876604 C0.151910542,74.5570358 21.4700233,95.9529073 47.5986366,95.9529073" id="Fill-44" fill="#C5CBE4"></path>
                    <path d="M47.5986366,95.9529073 C73.7103709,95.9529073 94.9778468,74.5570358 94.9778468,48.2876604 C94.9778468,22.0182849 73.7103709,0.5629805 47.5986366,0.5629805 C21.4700233,0.5629805 0.151910542,22.0182849 0.151910542,48.2876604 C0.151910542,74.5570358 21.4700233,95.9529073 47.5986366,95.9529073" id="Fill-44-Copy" fill="#172249" opacity="0.14"></path>
                    <path d="M79.4829715,30.3983345 C80.2087663,30.3983345 80.7320137,30.9926643 80.7320137,31.646427 C80.7320137,32.3001898 80.2087663,32.8945195 79.4829715,32.8945195 C78.8415714,32.8945195 78.2508082,32.3001898 78.2508082,31.646427 C78.2508082,30.9926643 78.8415714,30.3983345 79.4829715,30.3983345 Z M59.7008431,16.72875 C61.4731327,16.72875 62.9584803,18.1551414 62.9584803,19.9975637 C62.9584803,21.780553 61.4731327,23.2663774 59.7008431,23.2663774 C57.9285534,23.2663774 56.4600848,21.780553 56.4600848,19.9975637 C56.4600848,18.1551414 57.9285534,16.72875 59.7008431,16.72875 Z M75.0100499,87.2162598 C67.2626123,92.7435265 57.8104008,95.9529073 47.5986366,95.9529073 C21.4193864,95.9529073 0.151910542,74.6164688 0.151910542,48.2876604 C0.151910542,40.9179713 1.80604756,33.9643131 4.82737945,27.7238506 C12.5579382,22.1965838 22.0101497,18.9277701 32.2387928,18.9277701 C58.401164,18.9277701 79.6180031,40.2642086 79.6180031,66.65245 C79.6180031,74.022139 77.963866,80.9757973 75.0100499,87.2162598 Z" id="Fill-45" fill="#C5CBE4"></path>
                    <path d="M16.929586,44.7811148 C18.7525125,44.7811148 20.1872232,46.2669392 20.1872232,48.0499285 C20.1872232,49.8329177 18.7525125,51.3187422 16.929586,51.3187422 C15.1572963,51.3187422 13.6888277,49.8329177 13.6888277,48.0499285 C13.6888277,46.2669392 15.1572963,44.7811148 16.929586,44.7811148 Z M61.5406485,41.8688989 C63.3129382,41.8688989 64.7814068,43.3547233 64.7814068,45.1377126 C64.7814068,46.9207019 63.3129382,48.4065263 61.5406485,48.4065263 C59.7008431,48.4065263 58.2830114,46.9207019 58.2830114,45.1377126 C58.2830114,43.3547233 59.7008431,41.8688989 61.5406485,41.8688989 Z M72.4613286,79.073942 C74.2336183,79.073942 75.7189658,80.5597664 75.7189658,82.3427557 C75.7189658,84.185178 74.2336183,85.6115694 72.4613286,85.6115694 C70.689039,85.6115694 69.2205704,84.185178 69.2205704,82.3427557 C69.2205704,80.5597664 70.689039,79.073942 72.4613286,79.073942 Z M39.8511989,86.7407959 C41.2183938,86.7407959 42.3324044,87.8105895 42.3324044,89.177548 C42.3324044,90.5445064 41.2183938,91.673733 39.8511989,91.673733 C38.5515198,91.673733 37.4375092,90.5445064 37.4375092,89.177548 C37.4375092,87.8105895 38.5515198,86.7407959 39.8511989,86.7407959 Z M61.0005222,74.141005 C62.367717,74.141005 63.4310908,75.2107986 63.4310908,76.577757 C63.4310908,77.9447155 62.367717,79.073942 61.0005222,79.073942 C59.6502062,79.073942 58.5868324,77.9447155 58.5868324,76.577757 C58.5868324,75.2107986 59.6502062,74.141005 61.0005222,74.141005 Z M68.0896808,50.7838454 C68.7985967,50.7838454 69.338723,51.3781751 69.338723,52.0319379 C69.338723,52.6857006 68.7985967,53.2800304 68.0896808,53.2800304 C67.4314018,53.2800304 66.9081544,52.6857006 66.9081544,52.0319379 C66.9081544,51.3781751 67.4314018,50.7838454 68.0896808,50.7838454 Z M54.097032,34.6180758 C54.8059478,34.6180758 55.3291953,35.1529726 55.3291953,35.8067354 C55.3291953,36.5199311 54.8059478,37.0548279 54.097032,37.0548279 C53.438753,37.0548279 52.8479897,36.5199311 52.8479897,35.8067354 C52.8479897,35.1529726 53.438753,34.6180758 54.097032,34.6180758 Z M45.7588311,65.8203883 C46.4002312,65.8203883 46.9909944,66.3552851 46.9909944,67.0090479 C46.9909944,67.7222436 46.4002312,68.2571404 45.7588311,68.2571404 C45.1005521,68.2571404 44.5266678,67.7222436 44.5266678,67.0090479 C44.5266678,66.3552851 45.1005521,65.8203883 45.7588311,65.8203883 Z M31.0572664,25.8814283 C33.8254141,25.8814283 36.1378301,28.1398814 36.1378301,30.9926643 C36.1378301,33.8454472 33.8254141,36.1039003 31.0572664,36.1039003 C28.204724,36.1039003 25.9767027,33.8454472 25.9767027,30.9926643 C25.9767027,28.1398814 28.204724,25.8814283 31.0572664,25.8814283 Z" id="Fill-46" fill="#182349" opacity="0.138648624"></path>
                </g>
            </g>
        </g>
    </g>
</svg>
