<svg width="112" height="112" xmlns="http://www.w3.org/2000/svg"><g fill="none" fill-rule="evenodd"><path d="M55.621 111.704c30.587 0 55.52-24.928 55.52-55.515C111.14 25.63 86.207.702 55.62.702 25.066.702.134 25.63.134 56.189c0 30.587 24.932 55.515 55.487 55.515" fill="#5F6B9B"/><path d="M55.621.702c30.674 0 55.52 24.845 55.52 55.487 0 30.67-24.846 55.515-55.52 55.515-5.576-1.518-17.336-2.43-15.459-7.674.97-2.595 8.369 1.049 15.704 1.629 9.772.745 20.073-1.27 21.209-4.417 1.68-4.72-10.08-1.574-23.63-2.292-16.067-.883-34.563-5.604-34.097-13.057.362-5.687 16.595 1.629 32.519 3.064 16.287 1.463 32.299-2.981 33.095-12.422.836-9.607-14.844-7.178-32.985-7.592-16.95-.414-38.45-6.184-39.2-16.398-.772-11.042 16.54-6.432 32.993-6.763 16.564-.331 32.244-5.604 29.341-16.619-1.601-6.018-11.429-2.208-23.63-1.656-12.336.58-27.022-2.07-27.993-7.095C21.666 10.888 43.94 1.917 55.621.702" fill="#172249" opacity=".2"/><path d="M55.621.702c1.822 0 3.62.083 5.387.248-.418 0-.836-.027-1.246-.027-30.642 0-55.51 24.872-55.51 55.515 0 28.848 22.029 52.56 50.155 55.266C24.317 111.042.134 86.445.134 56.19.134 25.547 24.98.702 55.621.702" fill="#FFF" opacity=".13"/></g></svg>