<svg width="129" height="129" xmlns="http://www.w3.org/2000/svg"><g fill="none" fill-rule="evenodd"><path d="M23.35 113.831c27.027 22.68 67.513 19.137 90.192-7.89 22.679-27.029 19.188-67.575-7.84-90.254C78.657-7.007 38.068-3.448 15.39 23.58c-22.68 27.028-19.085 67.557 7.96 90.251" fill="#C5CBE4"/><path d="M23.35 113.831c27.027 22.68 67.513 19.137 90.192-7.89 22.679-27.029 19.188-67.575-7.84-90.254C78.657-7.007 38.068-3.448 15.39 23.58c-22.68 27.028-19.085 67.557 7.96 90.251" fill="#172249" opacity=".14"/><path d="M112.948 74.076c.75.63.78 1.697.215 2.37-.564.672-1.62.83-2.37.199-.664-.557-.763-1.682-.198-2.355.564-.672 1.689-.77 2.353-.214zm-8.675-31.245c1.834 1.539 2.14 4.296.55 6.192-1.54 1.835-4.36 2.073-6.194.534-1.835-1.54-2.072-4.344-.533-6.178a4.368 4.368 0 0 1 6.177-.548zm-45.008 85.82c-12.79-1.043-25.346-5.95-35.916-14.82C-3.748 91.093-7.34 50.67 15.39 23.58c6.362-7.582 14.078-13.3 22.593-17.097a63.71 63.71 0 0 1 35.967 14.758c27.08 22.723 30.62 63.103 7.84 90.254a63.988 63.988 0 0 1-22.524 17.155z" fill="#C5CBE4"/><path d="M35.782 34.544a4.395 4.395 0 0 1 .55 6.193 4.395 4.395 0 0 1-6.194.534c-1.834-1.54-2.071-4.344-.532-6.178 1.54-1.835 4.342-2.088 6.176-.549zm48.69 35.75c1.835 1.54 2.073 4.344.533 6.178-1.539 1.835-4.342 2.088-6.176.549a4.38 4.38 0 0 1-.55-6.193 4.38 4.38 0 0 1 6.194-.533zM63.658 118.06c1.834 1.54 2.089 4.358.55 6.193-1.591 1.895-4.36 2.073-6.195.533a4.368 4.368 0 0 1-.532-6.178c1.54-1.834 4.342-2.087 6.177-.548zM23.283 97.624c1.415 1.187 1.645 3.256.465 4.662a3.365 3.365 0 0 1-4.724.413c-1.345-1.128-1.523-3.258-.343-4.664a3.278 3.278 0 0 1 4.602-.411zm32.77 5.405c1.415 1.188 1.592 3.212.411 4.619-1.18 1.406-3.255 1.644-4.67.457-1.398-1.173-1.524-3.258-.344-4.665 1.18-1.406 3.205-1.583 4.602-.41zm27.502-17.874c.734.616.78 1.696.216 2.369a1.696 1.696 0 0 1-2.37.2c-.682-.572-.71-1.638-.146-2.311s1.619-.83 2.3-.258zm-.527-28.786c.734.616.814 1.62.25 2.293-.617.734-1.62.83-2.354.214-.681-.571-.83-1.635-.215-2.369.564-.672 1.638-.71 2.319-.138zM47.459 81.231c.664.557.814 1.62.25 2.293a1.684 1.684 0 0 1-2.353.214 1.67 1.67 0 0 1-.198-2.355c.564-.672 1.62-.724 2.301-.152zm19.263-53.862c2.866 2.405 3.31 6.737.847 9.672-2.463 2.935-6.807 3.25-9.672.846-2.953-2.478-3.309-6.736-.846-9.672 2.463-2.935 6.719-3.323 9.671-.846z" fill="#182349" opacity=".139"/></g></svg>