<?xml version="1.0" encoding="UTF-8"?>
<svg width="129px" height="129px" viewBox="0 0 129 129" version="1.1" xmlns="http://www.w3.org/2000/svg" xmlns:xlink="http://www.w3.org/1999/xlink">
    <!-- Generator: Sketch 52.6 (67491) - http://www.bohemiancoding.com/sketch -->
    <title>planet a</title>
    <desc>Created with Sketch.</desc>
    <g id="Page-1" stroke="none" stroke-width="1" fill="none" fill-rule="evenodd">
        <g id="reactjs-girls-conf" transform="translate(-642.000000, -151.000000)">
            <g id="Group-7" transform="translate(138.000000, -195.000000)">
                <g id="planet-a" transform="translate(568.869667, 410.635712) rotate(40.000000) translate(-568.869667, -410.635712) translate(504.369667, 346.135712)">
                    <path d="M64.3157895,128.874561 C99.5982456,128.874561 128.335088,100.137719 128.335088,64.8552632 C128.335088,29.572807 99.5982456,0.756140351 64.3157895,0.756140351 C29.0105263,0.756140351 0.205263158,29.572807 0.205263158,64.8552632 C0.205263158,100.137719 29.0105263,128.874561 64.3157895,128.874561" id="Fill-44" fill="#C5CBE4"></path>
                    <path d="M64.3157895,128.874561 C99.5982456,128.874561 128.335088,100.137719 128.335088,64.8552632 C128.335088,29.572807 99.5982456,0.756140351 64.3157895,0.756140351 C29.0105263,0.756140351 0.205263158,29.572807 0.205263158,64.8552632 C0.205263158,100.137719 29.0105263,128.874561 64.3157895,128.874561" id="Fill-44-Copy" fill="#172249" opacity="0.14"></path>
                    <path d="M107.398246,40.8280702 C108.378947,40.8280702 109.085965,41.6263158 109.085965,42.504386 C109.085965,43.3824561 108.378947,44.1807018 107.398246,44.1807018 C106.531579,44.1807018 105.733333,43.3824561 105.733333,42.504386 C105.733333,41.6263158 106.531579,40.8280702 107.398246,40.8280702 Z M80.6684211,22.4684211 C83.0631579,22.4684211 85.0701754,24.3842105 85.0701754,26.8587719 C85.0701754,29.2535088 83.0631579,31.2491228 80.6684211,31.2491228 C78.2736842,31.2491228 76.2894737,29.2535088 76.2894737,26.8587719 C76.2894737,24.3842105 78.2736842,22.4684211 80.6684211,22.4684211 Z M101.354386,117.140351 C90.8859649,124.564035 78.1140351,128.874561 64.3157895,128.874561 C28.9421053,128.874561 0.205263158,100.217544 0.205263158,64.8552632 C0.205263158,54.9570175 2.44035088,45.6175439 6.52280702,37.2359649 C16.9684211,29.8122807 29.7403509,25.4219298 43.5614035,25.4219298 C78.9122807,25.4219298 107.580702,54.0789474 107.580702,89.5210526 C107.580702,99.4192982 105.345614,108.758772 101.354386,117.140351 Z" id="Fill-45" fill="#C5CBE4"></path>
                    <path d="M22.8754386,60.145614 C25.3385965,60.145614 27.277193,62.1412281 27.277193,64.5359649 C27.277193,66.9307018 25.3385965,68.9263158 22.8754386,68.9263158 C20.4807018,68.9263158 18.4964912,66.9307018 18.4964912,64.5359649 C18.4964912,62.1412281 20.4807018,60.145614 22.8754386,60.145614 Z M83.154386,56.2342105 C85.5491228,56.2342105 87.5333333,58.2298246 87.5333333,60.6245614 C87.5333333,63.0192982 85.5491228,65.0149123 83.154386,65.0149123 C80.6684211,65.0149123 78.7526316,63.0192982 78.7526316,60.6245614 C78.7526316,58.2298246 80.6684211,56.2342105 83.154386,56.2342105 Z M97.9105263,106.204386 C100.305263,106.204386 102.312281,108.2 102.312281,110.594737 C102.312281,113.069298 100.305263,114.985088 97.9105263,114.985088 C95.5157895,114.985088 93.5315789,113.069298 93.5315789,110.594737 C93.5315789,108.2 95.5157895,106.204386 97.9105263,106.204386 Z M53.8473684,116.501754 C55.6947368,116.501754 57.2,117.938596 57.2,119.774561 C57.2,121.610526 55.6947368,123.127193 53.8473684,123.127193 C52.0912281,123.127193 50.5859649,121.610526 50.5859649,119.774561 C50.5859649,117.938596 52.0912281,116.501754 53.8473684,116.501754 Z M82.4245614,99.5789474 C84.2719298,99.5789474 85.7087719,101.015789 85.7087719,102.851754 C85.7087719,104.687719 84.2719298,106.204386 82.4245614,106.204386 C80.6,106.204386 79.1631579,104.687719 79.1631579,102.851754 C79.1631579,101.015789 80.6,99.5789474 82.4245614,99.5789474 Z M92.0035088,68.2078947 C92.9614035,68.2078947 93.6912281,69.0061404 93.6912281,69.8842105 C93.6912281,70.7622807 92.9614035,71.5605263 92.0035088,71.5605263 C91.1140351,71.5605263 90.4070175,70.7622807 90.4070175,69.8842105 C90.4070175,69.0061404 91.1140351,68.2078947 92.0035088,68.2078947 Z M73.0964912,46.495614 C74.054386,46.495614 74.7614035,47.2140351 74.7614035,48.0921053 C74.7614035,49.05 74.054386,49.7684211 73.0964912,49.7684211 C72.2070175,49.7684211 71.4087719,49.05 71.4087719,48.0921053 C71.4087719,47.2140351 72.2070175,46.495614 73.0964912,46.495614 Z M61.8298246,88.4035088 C62.6964912,88.4035088 63.4947368,89.1219298 63.4947368,90 C63.4947368,90.9578947 62.6964912,91.6763158 61.8298246,91.6763158 C60.9403509,91.6763158 60.1649123,90.9578947 60.1649123,90 C60.1649123,89.1219298 60.9403509,88.4035088 61.8298246,88.4035088 Z M41.9649123,34.7614035 C45.7052632,34.7614035 48.8298246,37.7947368 48.8298246,41.6263158 C48.8298246,45.4578947 45.7052632,48.4912281 41.9649123,48.4912281 C38.1105263,48.4912281 35.1,45.4578947 35.1,41.6263158 C35.1,37.7947368 38.1105263,34.7614035 41.9649123,34.7614035 Z" id="Fill-46" fill="#182349" opacity="0.138648624"></path>
                </g>
            </g>
        </g>
    </g>
</svg>